<svg width="106" height="106" viewBox="0 0 106 106" fill="none" xmlns="http://www.w3.org/2000/svg">
<circle cx="53" cy="53" r="51.5" fill="#73984A" stroke="#73984A" stroke-width="3"/>
<path d="M77.4215 31.0974H77.1401V30.8158C77.1401 29.943 76.4333 29.2354 75.5615 29.2354C74.6898 29.2354 73.983 29.943 73.983 30.8158V31.0974H73.7016C72.8298 31.0974 72.1231 31.805 72.1231 32.6778C72.1231 33.5506 72.8298 34.2582 73.7016 34.2582H73.983V34.54C73.983 35.4128 74.6898 36.1204 75.5615 36.1204C76.4333 36.1204 77.1401 35.4128 77.1401 34.54V34.2582H77.4215C78.2932 34.2582 79 33.5506 79 32.6778C79 31.805 78.2932 31.0974 77.4215 31.0974Z" fill="white"/>
<path d="M32.788 31.0231H33.0692V31.3049C33.0692 32.1777 33.776 32.8853 34.6478 32.8853C35.5195 32.8853 36.2263 32.1777 36.2263 31.3049V31.0231H36.5077C37.3795 31.0231 38.0862 30.3155 38.0862 29.4427C38.0862 28.5699 37.3795 27.8623 36.5077 27.8623H36.2263V27.5807C36.2263 26.7078 35.5195 26.0002 34.6478 26.0002C33.776 26.0002 33.0692 26.7078 33.0692 27.5807V27.8623H32.788C31.9162 27.8623 31.2094 28.5699 31.2094 29.4427C31.2094 30.3155 31.9162 31.0231 32.788 31.0231Z" fill="white"/>
<path d="M32.2983 42.2653C33.1701 42.2653 33.8768 41.5576 33.8768 40.6848C33.8768 39.812 33.1701 39.1044 32.2983 39.1044H32.0169V38.8228C32.0169 37.95 31.3101 37.2424 30.4384 37.2424C29.5666 37.2424 28.8598 37.95 28.8598 38.8228V39.1044H28.5785C27.7068 39.1044 27 39.812 27 40.6848C27 41.5576 27.7068 42.2653 28.5785 42.2653H28.8598V42.547C28.8598 43.4198 29.5666 44.1274 30.4384 44.1274C31.3101 44.1274 32.0169 43.4198 32.0169 42.547V42.2653H32.2983Z" fill="white"/>
<path d="M70.1723 64.0594C70.0676 64.0377 69.9609 64.0268 69.854 64.0267L61.4461 64.0234V58.7114C64.7904 57.6606 67.2232 54.5289 67.2232 50.8386V38.5501C67.8819 37.4473 68.2617 36.1592 68.2617 34.7835V27.5806C68.2617 26.8262 67.7292 26.1769 66.99 26.0303C66.2505 25.8837 65.5113 26.2805 65.2239 26.9778C64.874 27.8269 63.7062 28.5177 62.6207 28.5177H45.0701C42.0644 28.5177 39.6189 30.966 39.6189 33.9754V40.5653C39.6189 41.2479 40.0519 41.8277 40.6574 42.0487V50.8386C40.6574 54.5289 43.0903 57.6607 46.4345 58.7114V64.0173L38.0249 64.0139C38.0247 64.0139 38.0251 64.0139 38.0249 64.0139C37.917 64.0139 37.8089 64.0249 37.7034 64.0469C34.4989 64.7128 32.1766 67.423 32.0562 70.6357C32.0548 70.6753 32.0525 70.7353 32.0512 78.3643C32.0511 79.2371 32.7576 79.9448 33.6295 79.945C34.5012 79.945 35.2082 79.2376 35.2083 78.3648C35.2086 76.3486 35.2099 71.1285 35.2118 70.7359C35.2847 69.0349 36.5024 67.5919 38.1993 67.1748L40.6024 67.1758V78.4195C40.6024 79.2923 41.3092 79.9999 42.181 79.9999C43.0527 79.9999 43.7595 79.2923 43.7595 78.4195V67.1771L47.862 67.1788L48.9227 72.108V78.3647C48.9227 79.2375 49.6294 79.9451 50.5012 79.9451C51.373 79.9451 52.0797 79.2375 52.0797 78.3647V73.4477H55.8282V78.3647C55.8282 79.2375 56.535 79.9451 57.4067 79.9451C58.2785 79.9451 58.9853 79.2375 58.9853 78.3647V71.9795L60.0173 67.1837L64.1731 67.1854V78.4196C64.1731 79.2924 64.8798 80 65.7516 80C66.6234 80 67.3301 79.2924 67.3301 78.4196V67.1866L69.6785 67.1876C71.3072 67.5867 72.5188 68.9617 72.6578 70.5861C72.6647 71.0694 72.67 75.4608 72.6721 78.3657C72.6727 79.2382 73.3793 79.9452 74.2506 79.9451H74.2518C75.1235 79.9445 75.8298 79.2364 75.8292 78.3636C75.8238 70.5816 75.8143 70.4579 75.8088 70.3843C75.5761 67.2977 73.2581 64.6968 70.1723 64.0594ZM49.5916 64.0186V59.0879H58.2889V64.0221L49.5916 64.0186ZM42.776 33.9755C42.776 32.709 43.8051 31.6787 45.0701 31.6787H62.6206C63.477 31.6787 64.3281 31.4859 65.1045 31.1438V34.7835C65.1045 37.1001 63.2219 38.9849 60.908 38.9849H54.8236C53.5305 38.9849 52.4788 37.9723 52.4292 36.6795C52.399 35.8931 51.7954 35.2486 51.0135 35.168C50.9588 35.1623 50.9046 35.1596 50.8506 35.1596C50.1333 35.1596 49.4962 35.6486 49.3198 36.3589C48.9361 37.9051 47.555 38.9849 45.9612 38.9849H42.776V33.9755ZM43.8145 50.8387V42.1458H45.9612C47.7583 42.1458 49.4141 41.4272 50.6208 40.2306C51.6387 41.4076 53.1432 42.1458 54.8235 42.1458H60.908C62.0378 42.1458 63.1086 41.8888 64.066 41.431V50.8387C64.066 53.6445 61.7861 55.9271 58.9836 55.9271H48.8967C46.0944 55.9271 43.8145 53.6445 43.8145 50.8387ZM56.1201 70.2869H51.7603L51.0918 67.1801L56.7882 67.1824L56.1201 70.2869Z" fill="white"/>
<path d="M53.9402 52.8239C55.6134 52.8239 57.1739 51.9223 58.0124 50.4711C58.4489 49.7155 58.1911 48.7488 57.4365 48.3117C56.6821 47.8749 55.7161 48.1326 55.2796 48.8884C55.0036 49.3663 54.4902 49.6631 53.9402 49.6631C53.39 49.6631 52.8768 49.3663 52.6005 48.8885C52.1639 48.133 51.1981 47.875 50.4436 48.3122C49.6891 48.7494 49.4315 49.7163 49.8681 50.4717C50.7069 51.9225 52.2671 52.8239 53.9402 52.8239Z" fill="white"/>
</svg>
