<svg width="106" height="106" viewBox="0 0 106 106" fill="none" xmlns="http://www.w3.org/2000/svg">
<circle cx="53" cy="53" r="51.5" fill="#73984A" stroke="#73984A" stroke-width="3"/>
<path d="M28.9728 77.1466C28.8213 77.1466 28.6671 77.1268 28.5138 77.0876C27.5384 76.837 26.9506 75.8503 27.204 74.8834C28.2804 70.7652 30.2935 66.8636 32.2413 63.0926C35.5934 56.5994 38.76 50.466 37.5472 43.3096C37.107 40.7142 35.5329 38.3509 33.866 35.8496C32.3136 33.519 30.7081 31.1095 29.8977 28.3072C29.6199 27.3472 30.1799 26.3458 31.1501 26.0706C32.1185 25.7963 33.1309 26.3488 33.4087 27.3109C34.0654 29.579 35.4497 31.6581 36.9158 33.8575C38.7173 36.5637 40.581 39.3609 41.1488 42.711C42.5614 51.0482 38.9686 58.0084 35.4932 64.7396C33.5503 68.5028 31.7161 72.0577 30.7394 75.7907C30.5278 76.6058 29.7858 77.1466 28.9728 77.1466Z" fill="white"/>
<path d="M76.0967 77.1466C75.2846 77.1466 74.5426 76.6058 74.3297 75.7907C73.3543 72.0564 71.5193 68.5028 69.5763 64.7396C66.1019 58.0084 62.5085 51.0469 63.9233 42.711C64.4894 39.3613 66.3531 36.5629 68.1546 33.8567C69.619 31.6572 71.0029 29.5803 71.6595 27.3109C71.9365 26.3505 72.9515 25.795 73.9182 26.0706C74.8866 26.3449 75.4488 27.3472 75.1705 28.3072C74.3606 31.1074 72.7568 33.5168 71.2036 35.8478C69.5376 38.3492 67.9647 40.7125 67.5245 43.3079C66.3104 50.466 69.4775 56.5986 72.8278 63.0913C74.7752 66.8636 76.7882 70.7644 77.8642 74.8821C78.1177 75.8494 77.5302 76.837 76.5548 77.0867C76.4024 77.1281 76.247 77.1466 76.0967 77.1466Z" fill="white"/>
<path d="M76.9585 39.4006C76.6724 39.4006 76.3824 39.3337 76.1124 39.1927C75.2193 38.7282 74.8749 37.635 75.3439 36.7509C75.7218 36.0376 75.9879 35.4097 76.1581 34.8296C76.439 33.8696 77.4532 33.312 78.4203 33.5971C79.3892 33.8752 79.947 34.8796 79.6653 35.8379C79.4266 36.653 79.0704 37.5004 78.5779 38.4302C78.2514 39.0465 77.616 39.4006 76.9585 39.4006Z" fill="white"/>
<path d="M75.8917 60.3778C75.2141 60.3778 74.5631 60.0021 74.2474 59.3587C73.5341 57.9036 72.7211 56.2066 72.0841 54.4811C71.7379 53.5435 72.2265 52.5037 73.174 52.1622C74.1229 51.8202 75.1706 52.3032 75.5159 53.2416C76.0924 54.8062 76.8592 56.4045 77.5342 57.7781C77.974 58.6777 77.5964 59.7593 76.689 60.1962C76.432 60.3187 76.1599 60.3778 75.8917 60.3778ZM72.5944 49.644C71.5855 49.644 70.7682 48.8388 70.7682 47.8392C70.7682 46.8231 70.8714 45.8139 71.0751 44.8324C71.2519 43.975 71.5994 43.0616 72.1363 42.0447C72.6044 41.1602 73.7053 40.8182 74.6018 41.2813C75.4954 41.7449 75.8403 42.8382 75.3726 43.7232C74.9955 44.4356 74.7612 45.0351 74.6524 45.5573C74.4978 46.303 74.4198 47.0672 74.4198 47.8305C74.4207 48.8298 73.6038 49.644 72.5944 49.644Z" fill="white"/>
<path d="M79.2477 68.3303C78.4373 68.3303 77.6975 67.7925 77.4815 66.9804C77.3025 66.3025 77.0722 65.6017 76.7782 64.8375C76.419 63.9046 76.891 62.8584 77.8329 62.5026C78.7756 62.1451 79.8303 62.6134 80.1904 63.5471C80.5327 64.4329 80.8018 65.2558 81.0156 66.0601C81.2708 67.0261 80.6868 68.0159 79.7127 68.2699C79.5564 68.3117 79.4001 68.3303 79.2477 68.3303Z" fill="white"/>
<path d="M28.1158 39.4006C27.4579 39.4006 26.823 39.0478 26.4964 38.4315C26.0039 37.5013 25.6486 36.6539 25.4095 35.8388C25.1282 34.8796 25.6856 33.8752 26.6549 33.5971C27.6186 33.3189 28.6362 33.8683 28.9175 34.8296C29.0873 35.4097 29.3538 36.0376 29.7314 36.7509C30.2003 37.6346 29.8563 38.7291 28.9628 39.1927C28.6919 39.3329 28.4019 39.4006 28.1158 39.4006Z" fill="white"/>
<path d="M29.1814 60.3765C28.9136 60.3765 28.6406 60.317 28.3832 60.1936C27.4762 59.7563 27.0982 58.6738 27.5393 57.7755C28.2121 56.4075 28.9776 54.8144 29.5576 53.2408C29.9038 52.3023 30.9515 51.8202 31.899 52.1613C32.847 52.5042 33.3347 53.5426 32.9894 54.4802C32.3502 56.2156 31.5359 57.9075 30.8248 59.3578C30.5091 60.0013 29.8581 60.3765 29.1814 60.3765ZM32.4799 49.6449C31.4705 49.6449 30.6536 48.8384 30.6536 47.8392C30.6536 47.0681 30.5753 46.3039 30.4211 45.5595C30.3131 45.0351 30.078 44.4356 29.7009 43.7232C29.2328 42.8386 29.5781 41.7441 30.4716 41.2818C31.3669 40.819 32.4699 41.161 32.9367 42.0447C33.474 43.062 33.8224 43.975 33.9983 44.8345C34.2021 45.8152 34.3049 46.8253 34.3049 47.8344C34.3062 48.8328 33.4889 49.6449 32.4799 49.6449Z" fill="white"/>
<path d="M25.828 68.3303C25.6756 68.3303 25.5179 68.3109 25.3629 68.2708C24.3884 68.0168 23.8044 67.0274 24.0601 66.0614C24.2734 65.2567 24.5425 64.4338 24.8852 63.548C25.2432 62.6143 26.2996 62.1451 27.2428 62.5035C28.1842 62.8593 28.6571 63.9055 28.297 64.8383C28.0031 65.6017 27.7727 66.3025 27.5937 66.9813C27.3782 67.7925 26.6379 68.3303 25.828 68.3303Z" fill="white"/>
<path d="M67.0198 41.0554C66.6932 41.0554 66.3631 40.9682 66.0644 40.7867C59.7029 36.9049 50.4117 36.1484 42.9425 38.896C41.9949 39.2445 40.9451 38.7675 40.5941 37.8308C40.2427 36.8941 40.7247 35.8526 41.6692 35.505C50.2702 32.3403 60.5973 33.2016 67.9795 37.7057C68.8382 38.2297 69.1065 39.3437 68.577 40.1941C68.2317 40.7496 67.6333 41.0554 67.0198 41.0554Z" fill="white"/>
<path d="M52.5337 65.3235C46.1813 65.3235 39.8321 64.4476 34.7682 62.6967C33.8154 62.3676 33.3129 61.3356 33.6452 60.392C33.9774 59.4475 35.0212 58.9498 35.9722 59.2802C45.4158 62.5457 59.6598 62.5457 69.1034 59.278C70.0523 58.9481 71.0969 59.4458 71.4305 60.3903C71.7627 61.3326 71.2602 62.3646 70.3074 62.6945C65.241 64.4468 58.8869 65.3235 52.5337 65.3235Z" fill="white"/>
<path d="M52.5376 81C48.2236 81 43.7576 76.6852 39.4393 72.5114C36.8949 70.0519 34.2644 67.5092 32.5975 66.9313C31.646 66.6009 31.1444 65.5693 31.4775 64.6257C31.8111 63.6843 32.8496 63.1819 33.8054 63.5169C36.2361 64.3592 38.9024 66.9373 41.9906 69.9217C45.4306 73.2459 49.7102 77.3825 52.5376 77.3825C55.365 77.3825 59.6485 73.2433 63.0894 69.9186C64.4615 68.5921 65.7566 67.3397 67.008 66.2701C67.7705 65.6172 68.9253 65.6996 69.5842 66.4552C70.2439 67.2103 70.1598 68.354 69.3969 69.0065C68.2295 70.0058 66.9723 71.2206 65.6407 72.5071C61.3198 76.683 56.852 81 52.5376 81Z" fill="white"/>
<path d="M52.5328 55.5562C51.8796 55.5562 51.2465 55.2914 50.7819 54.8416C50.3268 54.3802 50.0595 53.7544 50.0595 53.1066C50.0595 52.4589 50.3277 51.8327 50.7819 51.3725C51.7107 50.4604 53.3628 50.4604 54.2838 51.3725C54.7488 51.8331 55.0049 52.4688 55.0049 53.1066C55.0049 53.7531 54.7479 54.3802 54.2838 54.8416C53.8287 55.2914 53.1856 55.5562 52.5328 55.5562Z" fill="white"/>
</svg>
