<svg width="106" height="106" viewBox="0 0 106 106" fill="none" xmlns="http://www.w3.org/2000/svg">
<circle cx="53" cy="53" r="51.5" fill="#73984A" stroke="#73984A" stroke-width="3"/>
<path d="M44.6364 66.3438C43.4816 66.3438 42.5455 65.3994 42.5455 64.2344V56.6406C42.5455 55.4756 43.4816 54.5312 44.6364 54.5312C45.7912 54.5312 46.7273 55.4756 46.7273 56.6406V64.2344C46.7273 65.3994 45.7912 66.3438 44.6364 66.3438Z" fill="white"/>
<path d="M53 66.3438C51.8452 66.3438 50.9091 65.3994 50.9091 64.2344V56.6406C50.9091 55.4756 51.8452 54.5312 53 54.5312C54.1548 54.5312 55.0909 55.4756 55.0909 56.6406V64.2344C55.0909 65.3994 54.1548 66.3438 53 66.3438Z" fill="white"/>
<path d="M61.3636 66.3438C60.2088 66.3438 59.2727 65.3994 59.2727 64.2344V56.6406C59.2727 55.4756 60.2088 54.5312 61.3636 54.5312C62.5184 54.5312 63.4545 55.4756 63.4545 56.6406V64.2344C63.4545 65.3994 62.5184 66.3438 61.3636 66.3438Z" fill="white"/>
<path d="M69.7273 33.4375H61.3636V31.3281C61.3636 27.8388 58.5497 25 55.0909 25H50.9091C47.4503 25 44.6364 27.8388 44.6364 31.3281V33.4375H36.2727C32.8139 33.4375 30 36.2763 30 39.7656C30 43.255 32.8139 46.0938 36.2727 46.0938H69.7273C73.1861 46.0938 76 43.255 76 39.7656C76 36.2763 73.1861 33.4375 69.7273 33.4375ZM48.8182 31.3281C48.8182 30.165 49.7562 29.2188 50.9091 29.2188H55.0909C56.2438 29.2188 57.1818 30.165 57.1818 31.3281V33.4375H48.8182V31.3281ZM69.7273 41.875H36.2727C35.1198 41.875 34.1818 40.9287 34.1818 39.7656C34.1818 38.6025 35.1198 37.6562 36.2727 37.6562H69.7273C70.8802 37.6562 71.8182 38.6025 71.8182 39.7656C71.8182 40.9287 70.8802 41.875 69.7273 41.875Z" fill="white"/>
<path d="M69.7273 52.8125C68.5725 52.8125 67.6364 53.7569 67.6364 54.9219V70.9531C67.6364 74.4425 64.8224 77.2812 61.3636 77.2812H44.6364C41.1776 77.2812 38.3636 74.4425 38.3636 70.9531V45.5C38.3636 44.335 37.4275 43.3906 36.2727 43.3906C35.1179 43.3906 34.1818 44.335 34.1818 45.5V70.9531C34.1818 76.7687 38.8717 81.5 44.6364 81.5H61.3636C67.1283 81.5 71.8182 76.7687 71.8182 70.9531V54.9219C71.8182 53.7569 70.8821 52.8125 69.7273 52.8125Z" fill="white"/>
</svg>
