<svg width="106" height="106" viewBox="0 0 106 106" fill="none" xmlns="http://www.w3.org/2000/svg">
<circle cx="53" cy="53" r="51.5" fill="#73984A" stroke="#73984A" stroke-width="3"/>
<path d="M27.094 55.3693C26.7401 55.727 26.2762 55.906 25.8125 55.906C25.3487 55.906 24.8848 55.727 24.5309 55.3693C23.823 54.6539 23.823 53.4939 24.5309 52.7785L48.3882 28.6641H46.6251C45.6241 28.6641 44.8126 27.8439 44.8126 26.832C44.8126 25.8202 45.6241 25 46.6251 25H52.7639C53.7649 25 54.5764 25.8202 54.5764 26.832V33.037C54.5764 34.0488 53.7649 34.869 52.7639 34.869C51.763 34.869 50.9514 34.0488 50.9514 33.037V31.2549L27.094 55.3693ZM81.9881 64.5632C81.8609 67.3237 80.7497 70.1448 78.7749 72.7212C76.5703 75.5973 73.4485 77.9896 69.4963 79.8316C69.2556 79.9438 68.9964 80 68.7374 80C68.4783 80 68.2192 79.9439 67.9784 79.8316C64.9292 78.4104 62.3766 76.6604 60.3559 74.6146H28.2727C27.2718 74.6146 26.4602 73.7945 26.4602 72.7826V61.2131C26.4602 60.2013 27.2718 59.3811 28.2727 59.3811H37.9065V49.6435C37.9065 48.6317 38.718 47.8115 39.719 47.8115H49.3528V38.0738C49.3528 37.062 50.1643 36.2418 51.1653 36.2418H62.6116C63.6125 36.2418 64.4241 37.062 64.4241 38.0738V55.9288C65.6834 56.1239 67.1236 56.5976 68.7373 57.5037C73.4613 54.8507 76.7 55.9009 78.2598 56.8144C80.7507 58.2733 82.1445 61.1702 81.9881 64.5632ZM52.9779 39.9058V70.9507H57.5034C56.2778 68.8798 55.5852 66.7036 55.4865 64.5633C55.3301 61.1702 56.7238 58.2733 59.2147 56.8144C59.6265 56.5732 60.1566 56.3231 60.7991 56.1335V39.9058H52.9779ZM41.5316 51.4756V70.9507H49.3529V51.4756H41.5316ZM30.0852 70.9507H37.9065V63.0452H30.0852V70.9507ZM76.4423 59.9846C74.821 59.035 72.3675 59.4713 69.7108 61.1811C69.1169 61.5633 68.3578 61.5633 67.7637 61.1811C66.0303 60.0654 64.3832 59.4919 62.9974 59.4919C62.2594 59.4919 61.5955 59.6546 61.0321 59.9846C59.7347 60.7445 59.0152 62.3924 59.1074 64.3927C59.2672 67.8588 61.8957 72.7001 68.7371 76.1369C75.5785 72.6999 78.2071 67.8588 78.3668 64.3927C78.4593 62.3925 77.7397 60.7445 76.4423 59.9846Z" fill="white"/>
</svg>
