<svg width="106" height="106" viewBox="0 0 106 106" fill="none" xmlns="http://www.w3.org/2000/svg">
<circle cx="53" cy="53" r="51.5" fill="#73984A" stroke="#73984A" stroke-width="3"/>
<path d="M67.8846 47.3163C65.0995 47.393 62.8337 49.7504 62.8337 52.5715V59.217C62.8337 60.7824 62.2229 62.2543 61.1137 63.3612L59.9884 64.4844H58.329C58.8451 63.5425 59.139 62.4626 59.139 61.3154C59.139 57.6618 56.1609 54.6895 52.5002 54.6895C48.8395 54.6895 45.8613 57.6618 45.8613 61.3154C45.8613 62.4626 46.1553 63.5425 46.6714 64.4844H44.8965L43.7711 63.3612C42.6619 62.2543 42.0511 60.7825 42.0511 59.217V52.5715C42.0511 49.7503 39.7852 47.3928 36.9993 47.3162C35.5838 47.2781 34.2456 47.799 33.2319 48.7837C32.218 49.7685 31.6597 51.0883 31.6597 52.5V59.8439C31.6597 63.6239 32.9826 67.3153 35.3848 70.2385L40.7232 76.7333V80.2715C40.7232 81.2261 41.4987 82 42.4551 82H62.4294C63.3859 82 64.1613 81.2261 64.1613 80.2715V76.7332L69.4998 70.2383C71.9018 67.3154 73.2248 63.6239 73.2248 59.8438V52.5C73.2248 51.0883 72.6665 49.7684 71.6527 48.7837C70.6391 47.799 69.3019 47.2781 67.8846 47.3163ZM49.3249 61.3154C49.3249 59.568 50.7492 58.1465 52.5001 58.1465C54.2508 58.1465 55.6752 59.568 55.6752 61.3154C55.6752 63.0629 54.2508 64.4844 52.5001 64.4844C50.7493 64.4844 49.3249 63.0629 49.3249 61.3154ZM69.7611 59.8439C69.7611 62.8266 68.7172 65.7395 66.8218 68.0458L61.0905 75.0186C60.8364 75.3277 60.6976 75.7151 60.6976 76.115V78.543H44.1871V76.115C44.1871 75.7152 44.0482 75.3277 43.7941 75.0186L38.0628 68.0459C36.1675 65.7395 35.1236 62.8266 35.1236 59.8439V52.5C35.1236 52.0295 35.3097 51.5894 35.6478 51.2611C35.9856 50.9328 36.4318 50.7591 36.9047 50.772C37.8325 50.7976 38.5874 51.6048 38.5874 52.5715V59.217C38.5874 61.7059 39.5586 64.0458 41.3219 65.8057L42.9545 67.4351C43.2793 67.7592 43.7198 67.9414 44.1791 67.9414H60.7059C61.1652 67.9414 61.6057 67.7592 61.9305 67.4351L63.563 65.8057C65.3263 64.0457 66.2975 61.7057 66.2975 59.217V52.5715C66.2975 51.6048 67.0523 50.7974 67.9795 50.772C68.9284 50.7252 69.7818 51.5521 69.7613 52.5L69.7611 59.8439Z" fill="white"/>
<path d="M36.7887 32.3917H39.6685L36.6789 35.3755C36.0026 36.0506 36.0026 37.1449 36.6789 37.82C37.3552 38.495 38.4517 38.495 39.1281 37.82L45.0741 31.8854C45.5694 31.3911 45.7176 30.6476 45.4496 30.0017C45.1815 29.3558 44.5499 28.9346 43.8495 28.9346H40.9697L43.9592 25.9507C44.6356 25.2757 44.6356 24.1813 43.9592 23.5063C43.2829 22.8312 42.1864 22.8312 41.5101 23.5063L35.564 29.4408C35.0687 29.9352 34.9205 30.6787 35.1885 31.3246C35.4567 31.9705 36.0882 32.3917 36.7887 32.3917Z" fill="white"/>
<path d="M63.3442 32.4493H66.2241L63.2345 35.4331C62.558 36.1082 62.558 37.2026 63.2345 37.8776C63.9108 38.5526 65.0073 38.5526 65.6837 37.8776L71.6297 31.943C72.125 31.4487 72.2732 30.7052 72.0052 30.0593C71.737 29.4134 71.1057 28.9922 70.4051 28.9922H67.5252L70.5148 26.0084C71.1913 25.3333 71.1913 24.2389 70.5148 23.5639C69.8385 22.8889 68.742 22.8889 68.0657 23.5639L62.1196 29.4985C61.6243 29.9928 61.4761 30.7363 61.7441 31.3822C62.0122 32.0281 62.6437 32.4493 63.3442 32.4493Z" fill="white"/>
<path d="M47.695 42.8492H53.0086L47.9695 47.8784C47.2932 48.5535 47.2932 49.6479 47.9695 50.3229C48.6458 50.9979 49.7424 50.9979 50.4187 50.3229L58.4142 42.3429C58.9095 41.8486 59.0577 41.1051 58.7897 40.4592C58.5215 39.8133 57.8901 39.3921 57.1896 39.3921H51.8761L56.915 34.3628C57.5914 33.6878 57.5914 32.5934 56.915 31.9184C56.2387 31.2433 55.1421 31.2433 54.4658 31.9184L46.4703 39.8984C45.975 40.3927 45.8268 41.1362 46.0949 41.7821C46.363 42.428 46.9945 42.8492 47.695 42.8492Z" fill="white"/>
<path d="M75.5625 36.8503C74.7555 36.3377 73.6851 36.5751 73.1715 37.3804L70.7603 41.161C70.2467 41.9662 70.4845 43.0347 71.2914 43.5472C72.0865 44.0555 73.1656 43.8291 73.6824 43.0172L76.0936 39.2365C76.6072 38.4313 76.3693 37.3629 75.5625 36.8503Z" fill="white"/>
<path d="M81.7521 44.2034C81.2593 43.3853 80.1953 43.1208 79.3756 43.6127L75.5272 45.9219C74.7074 46.4138 74.4424 47.4757 74.9352 48.2939C75.431 49.1192 76.5056 49.3722 77.3118 48.8846L81.1602 46.5754C81.98 46.0836 82.245 45.0216 81.7521 44.2034Z" fill="white"/>
<path d="M33.7086 43.5474C34.5155 43.0348 34.7533 41.9663 34.2397 41.1611L31.8287 37.3804C31.3152 36.575 30.2447 36.3377 29.4377 36.8503C28.6308 37.3629 28.393 38.4313 28.9066 39.2366L31.3176 43.0173C31.8344 43.8293 32.9136 44.0555 33.7086 43.5474Z" fill="white"/>
<path d="M29.4729 45.9218L25.6246 43.6126C24.8049 43.1208 23.7407 43.3851 23.2479 44.2033C22.755 45.0214 23.02 46.0834 23.8397 46.5753L27.6881 48.8844C28.4942 49.372 29.5689 49.1191 30.0648 48.2937C30.5577 47.4757 30.2927 46.4137 29.4729 45.9218Z" fill="white"/>
</svg>
