<svg width="106" height="106" viewBox="0 0 106 106" fill="none" xmlns="http://www.w3.org/2000/svg">
<circle cx="53" cy="53" r="51.5" fill="#73984A" stroke="#73984A" stroke-width="3"/>
<path d="M77.2285 57.356C75.129 54.8698 75.3165 52.3271 75.554 49.1113C75.6786 47.4237 75.8074 45.6787 75.5923 43.8171C75.4895 42.9286 74.726 42.2574 73.8178 42.2574H70.2708C70.2721 42.2465 70.2756 42.2355 70.2756 42.2247C70.2756 39.6662 68.7453 37.4548 66.5089 36.4295C66.6778 35.8578 66.7656 35.2627 66.7656 34.6619C66.7656 31.7225 64.7198 29.2391 61.9405 28.4885C61.4825 25.3894 58.7373 23 55.4298 23C53.8706 23 52.3911 23.5378 51.2285 24.477C50.0658 23.5378 48.5862 23 47.0268 23C43.7192 23 40.9741 25.3894 40.5162 28.4884C37.7368 29.239 35.691 31.7224 35.691 34.6618C35.691 35.2626 35.7788 35.8577 35.9477 36.4294C33.7114 37.4547 32.181 39.6661 32.181 42.2246C32.181 42.2355 32.1817 42.2464 32.1819 42.2573H29.9213C29.0109 42.2573 28.2463 42.9316 28.1462 43.8226C28.0493 44.686 28 45.5646 28 46.4337C28 51.8359 29.9081 57.1118 33.3727 61.2895C35.5435 63.9073 36.6712 67.1107 36.548 70.3101C36.4725 72.2726 36.0395 74.1474 35.261 75.8827C34.7878 76.8698 35.4515 78.1298 36.5433 78.3178L60.0415 82.9602C61.1478 83.2104 62.2785 82.2414 62.1752 81.1246C62.0361 78.9667 62.5051 77.5929 62.8632 76.8807H66.1931C70.1513 76.8807 73.608 74.1106 74.4123 70.2941L75.3244 65.9663C75.3745 65.9297 75.4246 65.8932 75.4744 65.8567C77.1044 64.6669 78.79 63.4366 78.9827 61.4216C79.1099 60.0928 78.5359 58.7624 77.2285 57.356ZM35.7528 42.2247C35.7528 40.6764 37.0129 39.4097 38.6217 39.341C39.2979 39.312 39.8996 38.909 40.1753 38.3002C40.4509 37.6914 40.3534 36.9814 39.9232 36.4665C39.4912 35.9494 39.2628 35.3254 39.2628 34.6618C39.2628 33.0692 40.6145 31.7734 42.276 31.7734C42.7908 31.7734 43.2806 31.5546 43.6197 31.1733C44.088 30.6873 44.0911 30.0284 44.0209 29.4046C44.0209 27.8126 45.3694 26.5173 47.0268 26.5173C48.1158 26.5173 49.1175 27.0822 49.6506 27.9942C49.7428 28.1654 49.8651 28.3237 50.0159 28.461C50.6218 29.0123 51.5327 29.0833 52.219 28.6325C52.4732 28.4656 52.6706 28.2449 52.8053 27.9953C54.2902 25.4343 58.4297 26.4401 58.4356 29.4048C58.3642 30.028 58.3705 30.688 58.8369 31.1733C59.1759 31.5546 59.6657 31.7734 60.1806 31.7734C61.842 31.7734 63.1937 33.0692 63.1937 34.6618C63.1937 35.3253 62.9654 35.9493 62.5333 36.4665C62.1031 36.9814 62.0056 37.6913 62.2813 38.3002C62.557 38.909 63.1586 39.312 63.8349 39.341C65.4436 39.4097 66.7037 40.6764 66.7037 42.2247C66.7037 42.2357 66.703 42.2465 66.7029 42.2574L53.6463 42.2482V34.655C53.6463 33.8929 53.1478 33.2175 52.4117 32.9822C51.6754 32.7467 50.8693 33.0053 50.4149 33.6222L44.0532 42.2573H35.7544C35.7542 42.2464 35.7528 42.2356 35.7528 42.2247ZM49.4793 48.088H44.1703L50.0746 40.074V44.0068C50.0746 44.978 50.8743 45.7655 51.8605 45.7655H57.4986L51.2652 55.4133V49.8467C51.2652 48.8754 50.4658 48.088 49.4793 48.088ZM75.4268 61.0918C75.2084 62.1717 72.2657 63.1751 71.9643 64.601L70.9151 69.5794C70.453 71.772 68.4671 73.3633 66.1932 73.3633H61.895C61.397 73.3633 60.9216 73.5681 60.5836 73.9282C60.3887 74.1358 58.9436 75.7778 58.636 79.095L39.2963 75.2741C39.778 73.7259 40.0534 72.1087 40.1174 70.4433C40.2735 66.3873 38.8608 62.3464 36.1393 59.0647C33.0524 55.3463 31.4183 50.5831 31.5829 45.7746H41.4621L39.2229 48.8139C38.3556 49.9146 39.2547 51.6502 40.6684 51.6053H47.6936V61.4535C47.6394 63.1605 50.0935 63.8731 50.9863 62.3976L61.7262 45.7747H72.1355C72.1446 46.7855 72.0696 47.8016 71.9917 48.8563C71.7425 52.2316 71.4601 56.0574 74.5169 59.6456C75.1405 60.2857 75.475 60.9231 75.4268 61.0918Z" fill="white"/>
</svg>
