<svg width="223" height="13" viewBox="0 0 223 13" fill="none" xmlns="http://www.w3.org/2000/svg">
<path d="M211.336 9.07992C206.996 9.11418 203.476 8.01169 199.9 7.71583C195.964 7.39193 192.024 6.98084 188.076 7.43242C187.521 7.49471 186.961 7.51339 186.403 7.51651C176.032 7.51651 165.659 7.59125 155.289 7.48536C148.552 7.41685 141.816 7.1677 135.084 6.86249C129.147 6.59466 123.208 6.48877 117.273 6.23339C104.834 5.69772 92.3931 5.58872 79.9518 5.73821C73.5337 5.81606 67.1155 6.01538 60.7046 6.36731C51.0714 6.89363 41.4525 7.76566 31.8624 9.12975C27.2493 9.78688 22.7822 11.397 18.217 12.3407C13.015 13.4182 7.81293 13.0756 2.62767 12.0292C2.04355 11.9109 1.45464 11.6804 0.91361 11.369C-0.22351 10.7118 -0.314479 9.61247 0.726883 8.69374C1.41394 8.08955 2.18479 7.61617 2.95803 7.2113C6.288 5.47037 9.81187 4.89421 13.3429 4.39591C17.3049 3.83844 21.2597 3.2 25.2288 2.73907C28.5205 2.35912 31.8241 2.0726 35.1277 1.93868C43.8943 1.58676 52.6609 1.26287 61.4347 1.20058C69.847 1.14141 78.2593 0.926514 86.6668 0.577706C103.453 -0.113683 120.244 -0.0513957 137.033 0.091865C142.852 0.141695 148.672 0.365929 154.485 0.711623C163.201 1.23172 171.912 1.88574 180.622 2.56778C187.262 3.08788 193.894 3.83844 200.537 4.2838C203.395 4.47377 206.275 4.02842 209.141 4.09382C213.124 4.18414 217.103 4.18725 221.086 4.11874C221.771 4.10628 222.796 3.84779 222.973 4.89733C223.186 6.15864 222.104 6.48877 221.405 6.85003C217.936 8.64702 214.268 8.89306 211.333 9.07992H211.336Z" fill="#97C93D"/>
</svg>
