<svg width="43" height="44" viewBox="0 0 43 44" fill="none" xmlns="http://www.w3.org/2000/svg">
<ellipse cx="21.5" cy="22" rx="20.5" ry="21" stroke="#77A117"/>
<path d="M33 31.5908L27.2193 25.8326C28.6772 24.0122 29.3833 21.7017 29.1922 19.3761C29.0012 17.0505 27.9276 14.8865 26.1923 13.3292C24.4569 11.7719 22.1916 10.9396 19.8622 11.0034C17.5328 11.0672 15.3164 12.0224 13.6687 13.6724C12.021 15.3224 11.0672 17.5419 11.0034 19.8745C10.9397 22.2071 11.7708 24.4755 13.326 26.2133C14.8812 27.951 17.0421 29.0261 19.3645 29.2174C21.6869 29.4087 23.9943 28.7017 25.8121 27.2417L31.5624 33L33 31.5908ZM20.1326 27.2417C18.731 27.2417 17.3609 26.8255 16.1955 26.0457C15.0301 25.266 14.1217 24.1577 13.5854 22.8609C13.049 21.5642 12.9087 20.1374 13.1821 18.7608C13.4555 17.3842 14.1305 16.1197 15.1216 15.1273C16.1127 14.1348 17.3754 13.4589 18.7501 13.1851C20.1247 12.9113 21.5496 13.0518 22.8446 13.5889C24.1395 14.1261 25.2463 15.0356 26.025 16.2026C26.8037 17.3697 27.2193 18.7417 27.2193 20.1452C27.2193 22.0273 26.4727 23.8324 25.1437 25.1632C23.8146 26.4941 22.0121 27.2417 20.1326 27.2417ZM21.145 19.1315H24.1821V21.159H21.145V24.2004H19.1202V21.159H16.0831V19.1315H19.1202V16.0901H21.145V19.1315Z" fill="#77A117"/>
</svg>
