<svg width="22" height="27" viewBox="0 0 22 27" fill="none" xmlns="http://www.w3.org/2000/svg">
<path d="M8.58818 6.82964C8.56086 6.57689 8.33352 6.39406 8.08119 6.42164C7.65124 6.4682 7.22594 6.53143 6.81714 6.60948C6.5675 6.6571 6.40376 6.8982 6.45143 7.14779C6.49351 7.36827 6.68647 7.52178 6.90294 7.52178C6.93152 7.52178 6.96063 7.51909 6.98974 7.5135C7.37423 7.4401 7.7748 7.38061 8.18017 7.33674C8.43287 7.30937 8.61554 7.08235 8.58818 6.82964Z" fill="white"/>
<path d="M18.0805 3.98805C17.8763 3.8366 17.5881 3.87942 17.4368 4.08371C17.2854 4.2879 17.3283 4.57615 17.5325 4.72744C18.5072 5.44996 19.0224 6.30874 19.0224 7.21076C19.0224 7.33479 19.0123 7.46004 18.9927 7.58306C18.8883 8.23576 18.512 8.85185 17.8741 9.41416C17.2708 9.946 16.4655 10.4015 15.4804 10.768C15.2422 10.8566 15.121 11.1216 15.2096 11.3598C15.2785 11.5452 15.4541 11.6598 15.6409 11.6598C15.6942 11.6598 15.7485 11.6504 15.8013 11.6307C16.4526 11.3885 17.036 11.1076 17.5472 10.7917L16.0874 19.9161C16.033 19.6938 15.8204 19.5418 15.5871 19.5691C15.2063 19.6139 14.8195 19.6367 14.4373 19.6367C12.6842 19.6367 10.9865 19.1801 9.39149 18.2794C9.17029 18.1545 8.88955 18.2326 8.76451 18.4539C8.63953 18.6752 8.71763 18.956 8.93896 19.0809C10.6737 20.0603 12.5235 20.557 14.4372 20.557C14.8553 20.557 15.2783 20.5322 15.6947 20.4832C15.8388 20.4662 15.9592 20.3842 16.0307 20.2702L15.4479 23.9133C15.4219 24.0757 15.3477 24.2389 15.2301 24.399C14.1125 24.6997 12.9634 24.8524 11.8123 24.8524C9.81689 24.8524 7.86481 24.4015 6.01009 23.5124C5.7808 23.4026 5.50605 23.4993 5.39616 23.7284C5.28626 23.9576 5.38302 24.2325 5.61221 24.3424C7.59212 25.2915 9.67809 25.7728 11.8123 25.7728C12.1338 25.7728 12.4552 25.7617 12.7759 25.7395C11.9312 25.9612 10.9688 26.0796 9.97139 26.0796C8.52215 26.0796 7.14699 25.8298 6.09916 25.3761C5.16365 24.9711 4.57898 24.4379 4.49498 23.9133L2.51607 11.5442C3.27602 13.3189 4.26564 14.8976 5.46756 16.2465C5.55847 16.3486 5.68467 16.4006 5.81128 16.4006C5.92018 16.4006 6.0296 16.3622 6.1173 16.284C6.30704 16.1149 6.32381 15.8239 6.15474 15.6342C5.05428 14.3992 4.14055 12.9577 3.42911 11.3379C3.65682 11.4409 3.89407 11.5387 4.1415 11.6307C4.19439 11.6505 4.24865 11.6598 4.30192 11.6598C4.4887 11.6598 4.66436 11.5452 4.73328 11.3598C4.82188 11.1216 4.70064 10.8567 4.46244 10.768C3.47736 10.4015 2.67195 9.946 2.06872 9.41416C1.43084 8.85185 1.05453 8.23581 0.950168 7.58322C0.930448 7.46009 0.920528 7.33479 0.920528 7.21076C0.920528 5.95594 1.90872 4.80612 3.70312 3.97302C5.38519 3.19208 7.61132 2.76203 9.97139 2.76203C10.714 2.76203 11.4524 2.80506 12.166 2.88986C12.4185 2.91965 12.6473 2.73951 12.6773 2.48713C12.7073 2.23474 12.527 2.00582 12.2746 1.97581C11.525 1.88669 10.75 1.84155 9.97129 1.84155C7.48011 1.84155 5.11635 2.30203 3.31536 3.13813C1.1774 4.13081 0 5.57715 0 7.21071C0 7.3832 0.013869 7.55738 0.041238 7.72856C0.172918 8.55158 0.608348 9.31186 1.33529 9.9909L3.58599 24.0586C3.72258 24.9125 4.48517 25.6804 5.73334 26.2207C6.89402 26.7232 8.39906 27 9.97129 27C11.5435 27 13.0486 26.7232 14.2092 26.2207C14.9151 25.9151 15.4655 25.5367 15.8354 25.1112C15.841 25.105 15.8464 25.0986 15.8516 25.0921C16.1262 24.7705 16.2984 24.4225 16.3565 24.0587L18.6072 9.9909C19.3342 9.31191 19.7697 8.55153 19.9013 7.72845C19.9287 7.55744 19.9425 7.38331 19.9425 7.21081C19.9428 6.00557 19.2989 4.89118 18.0805 3.98805Z" fill="white"/>
<path d="M21.064 0.85043C20.9221 0.51008 20.6562 0.245199 20.3152 0.104767C19.974 -0.0357702 19.5988 -0.0348212 19.2586 0.107035L13.0332 2.70088C11.9197 3.16489 11.0802 4.14053 10.7877 5.31087L10.5327 6.33075C10.3459 6.325 10.1585 6.3211 9.97169 6.3211C9.71749 6.3211 9.51149 6.52713 9.51149 6.78131C9.51149 7.03549 9.71749 7.24153 9.97169 7.24153C10.0823 7.24153 10.1931 7.24374 10.3039 7.2459L10.1539 7.84576C10.0594 8.22407 10.1309 8.62591 10.3499 8.94817L10.3654 8.97106C10.5082 9.18136 10.7944 9.2361 11.0047 9.09329C11.215 8.95049 11.2697 8.6643 11.1269 8.45405L11.1113 8.43095C11.0393 8.32511 11.0159 8.19317 11.0469 8.06898L11.3339 6.92079L11.3351 6.91615L11.6806 5.53414C11.903 4.64472 12.5409 3.90323 13.3872 3.55054L19.6127 0.95653C19.726 0.90928 19.8509 0.90897 19.9646 0.95579C20.0783 1.00262 20.167 1.0909 20.2142 1.20438C20.2615 1.31792 20.2618 1.44296 20.215 1.55665C20.1681 1.67035 20.0799 1.75894 19.9664 1.80619L13.7412 4.40014C13.1622 4.64146 12.7257 5.14887 12.5736 5.75742L11.9353 8.31014C11.9067 8.42494 11.8353 8.52234 11.7346 8.58425C11.5181 8.71735 11.4505 9.00085 11.5835 9.21733C11.6705 9.35871 11.8214 9.43659 11.976 9.43659C12.0582 9.43659 12.1414 9.41455 12.2166 9.36836C12.5237 9.17957 12.7409 8.88304 12.8283 8.53336L13.077 7.53863C14.1933 7.76254 15.183 8.10547 15.9514 8.53357C14.7654 9.21216 12.7425 9.8189 9.97159 9.8189C7.20089 9.8189 5.17799 9.21226 3.992 8.53362C4.37828 8.31805 4.8203 8.1234 5.31526 7.95286C5.55557 7.87001 5.68324 7.60814 5.6004 7.36782C5.51755 7.12751 5.25562 6.99984 5.01536 7.08269C4.31215 7.325 3.69827 7.61531 3.18226 7.94658C2.93852 7.71128 2.79899 7.48574 2.76808 7.29257C2.76371 7.26541 2.76149 7.23789 2.76149 7.21094C2.76149 6.82724 3.29242 6.19359 4.47847 5.64283C4.70903 5.53583 4.80906 5.26214 4.70207 5.03158C4.59507 4.80103 4.32138 4.70099 4.09082 4.80799C2.66109 5.47181 1.84107 6.34768 1.84107 7.21094C1.84107 7.2864 1.84718 7.36281 1.85915 7.43791C1.9902 8.25735 2.86907 9.08227 4.27017 9.7012C5.34226 10.1747 7.20162 10.7392 9.97149 10.7392C12.7413 10.7392 14.6006 10.1748 15.6728 9.7012C17.074 9.08233 17.9528 8.25745 18.0839 7.43796C18.0959 7.36271 18.1019 7.28635 18.1019 7.21094C18.1019 6.34768 17.282 5.47186 15.8522 4.8081C15.6218 4.70094 15.3481 4.80119 15.241 5.03174C15.134 5.2623 15.2341 5.53588 15.4646 5.64299C16.6506 6.19364 17.1815 6.8273 17.1815 7.21104C17.1815 7.23799 17.1792 7.26557 17.1749 7.29284C17.144 7.486 17.0044 7.71149 16.7606 7.94685C15.8691 7.37631 14.6667 6.92406 13.3002 6.6451L13.4663 5.98086C13.5482 5.65316 13.7833 5.38 14.095 5.24996L20.3204 2.65606C20.6609 2.51425 20.9257 2.24832 21.0661 1.90733C21.2066 1.56614 21.2058 1.19083 21.064 0.85043Z" fill="white"/>
<path d="M5.55326 18.4094H4.93965C4.68541 18.4094 4.47943 18.6154 4.47943 18.8696C4.47943 19.1238 4.68541 19.3298 4.93965 19.3298H5.55326C5.8075 19.3298 6.01348 19.1238 6.01348 18.8696C6.01348 18.6154 5.8075 18.4094 5.55326 18.4094Z" fill="white"/>
<path d="M15.0033 18.4094H14.3897C14.1354 18.4094 13.9295 18.6154 13.9295 18.8696C13.9295 19.1238 14.1355 19.3298 14.3897 19.3298H15.0033C15.2575 19.3298 15.4635 19.1238 15.4635 18.8696C15.4635 18.6154 15.2575 18.4094 15.0033 18.4094Z" fill="white"/>
<path d="M6.90315 18.5626C7.41149 18.5626 7.82358 18.1505 7.82358 17.6422C7.82358 17.1338 7.41149 16.7217 6.90315 16.7217C6.39482 16.7217 5.98273 17.1338 5.98273 17.6422C5.98273 18.1505 6.39482 18.5626 6.90315 18.5626Z" fill="white"/>
<path d="M13.0395 18.5626C13.5478 18.5626 13.9599 18.1505 13.9599 17.6422C13.9599 17.1338 13.5478 16.7217 13.0395 16.7217C12.5311 16.7217 12.119 17.1338 12.119 17.6422C12.119 18.1505 12.5311 18.5626 13.0395 18.5626Z" fill="white"/>
<path d="M16.4121 14.9326C14.6699 14.617 13.0226 13.5421 11.7737 11.9058C11.6195 11.7038 11.3307 11.6651 11.1286 11.8193C10.9266 11.9735 10.8879 12.2623 11.042 12.4644C12.4306 14.2835 14.2795 15.4817 16.248 15.8383C16.2758 15.8433 16.3034 15.8457 16.3306 15.8457C16.5488 15.8457 16.7426 15.6898 16.7829 15.4674C16.8282 15.2174 16.6622 14.9779 16.4121 14.9326Z" fill="white"/>
</svg>
