<svg width="19" height="27" viewBox="0 0 19 27" fill="none" xmlns="http://www.w3.org/2000/svg">
<path d="M15.2128 6.25587C15.1486 6.21995 15.0853 6.18457 15.0234 6.1494C14.4143 5.80404 14.1459 5.34346 14.1533 4.65596C14.1533 4.65396 14.1533 4.65201 14.1533 4.65V4.5573H14.5363C14.8427 4.5573 15.0919 4.30807 15.0919 4.00169V1.65765C15.0919 0.74366 14.3483 0 13.4342 0H4.63914C3.72509 0 2.98149 0.74366 2.98149 1.65765V4.00174C2.98149 4.30813 3.23071 4.55735 3.5371 4.55735H3.92005V4.65011C3.92005 4.65211 3.92005 4.65406 3.9201 4.65607C3.92749 5.34351 3.65918 5.80409 3.04999 6.1495C2.98808 6.18468 2.9248 6.22001 2.86051 6.25597C1.7214 6.89284 0 7.8553 0 10.7886V24.2556C0 25.7689 1.23113 27 2.74445 27H15.329C16.8422 27 18.0734 25.7689 18.0734 24.2556V10.7885C18.0734 7.85524 16.352 6.89274 15.2128 6.25587ZM4.08353 1.6577C4.08353 1.35126 4.3328 1.10204 4.63914 1.10204H13.4342C13.7406 1.10204 13.9898 1.35126 13.9898 1.65765V3.45536H4.08358V2.76428H10.7485C11.0527 2.76428 11.2995 2.51759 11.2995 2.21326C11.2995 1.90893 11.0527 1.66224 10.7485 1.66224H4.08353V1.6577ZM16.9713 24.2556C16.9713 25.1612 16.2346 25.8979 15.3289 25.8979H2.74445C1.83879 25.8979 1.10204 25.1612 1.10204 24.2556V10.7885C1.10204 8.50171 2.26942 7.84902 3.39835 7.21785C3.46459 7.18083 3.52977 7.14439 3.59357 7.10821C4.55228 6.56468 5.03296 5.73686 5.02214 4.64752V4.55751H13.0513V4.64752C13.0405 5.73686 13.5211 6.56468 14.4798 7.10821C14.5436 7.14439 14.6088 7.18083 14.6751 7.21785C15.8039 7.84902 16.9713 8.50171 16.9713 10.7885V24.2556Z" fill="white"/>
<path d="M13.5024 8.27839C13.2399 8.12725 12.9043 8.21638 12.7516 8.47831C12.5981 8.74119 12.6869 9.07858 12.9498 9.23188C12.9535 9.23404 12.9603 9.23784 12.964 9.23995C13.0485 9.28662 13.1398 9.30882 13.2301 9.30882C13.4241 9.30882 13.6124 9.20604 13.7128 9.02421C13.859 8.7597 13.7646 8.42715 13.5024 8.27839Z" fill="white"/>
<path d="M14.906 9.19088C14.6764 8.99128 14.3283 9.01569 14.1287 9.24535C13.9291 9.47501 13.9535 9.8231 14.1832 10.0227C14.5981 10.3833 15.1498 11.0291 15.1498 12.4691V14.7397C15.1498 15.044 15.3966 15.2907 15.7009 15.2907C16.0051 15.2907 16.2519 15.044 16.2519 14.7397V12.4692C16.2518 11.0502 15.8115 9.9778 14.906 9.19088Z" fill="white"/>
<path d="M12.5383 1.66223H12.5311C12.2268 1.66223 11.9801 1.90892 11.9801 2.21325C11.9801 2.51758 12.2268 2.76427 12.5311 2.76427H12.5383C12.8426 2.76427 13.0893 2.51758 13.0893 2.21325C13.0893 1.90892 12.8426 1.66223 12.5383 1.66223Z" fill="white"/>
<path d="M14.5849 20.1091C14.6601 20.0492 14.7326 19.9853 14.8017 19.9163C15.2808 19.4372 15.5445 18.8002 15.5445 18.1225C15.5443 16.7615 14.4667 15.6477 13.1199 15.5886C13.4097 15.1689 13.5662 14.6722 13.5662 14.1513C13.566 12.7853 12.4804 11.6685 11.1267 11.617C11.4166 11.1973 11.5731 10.7006 11.5731 10.1796C11.5729 8.78087 10.435 7.64287 9.03627 7.64276C8.3588 7.64276 7.72155 7.90659 7.24251 8.38558C6.76347 8.86467 6.49964 9.5016 6.4997 10.1793C6.49975 10.7127 6.66565 11.2079 6.94799 11.6168C6.31165 11.6437 5.71723 11.904 5.26418 12.357C4.78515 12.836 4.52132 13.4731 4.52137 14.1507C4.52142 14.6838 4.68717 15.1789 4.96935 15.5877C4.32784 15.6113 3.72793 15.8718 3.27162 16.3281C2.79253 16.8072 2.52875 17.4443 2.52881 18.1219C2.52891 18.9247 2.90433 19.6412 3.48836 20.1064C3.41321 20.1663 3.34065 20.2302 3.27167 20.2992C2.79258 20.7783 2.52881 21.4153 2.52886 22.093C2.52902 23.4916 3.66697 24.6297 5.06569 24.6298C5.74311 24.6298 6.38036 24.366 6.8594 23.887C6.92837 23.818 6.99229 23.7454 7.05225 23.6702C7.51741 24.2545 8.23402 24.6301 9.03704 24.6302C9.71454 24.6302 10.3517 24.3663 10.8308 23.8873C10.8998 23.8184 10.9637 23.7458 11.0236 23.6706C11.4888 24.2548 12.2054 24.6305 13.0084 24.6306C13.6858 24.6306 14.3231 24.3668 14.8021 23.8878C15.2812 23.4087 15.545 22.7716 15.545 22.094C15.5447 21.2909 15.1692 20.5743 14.5849 20.1091ZM11.029 12.7166C11.8202 12.7166 12.4641 13.3604 12.4641 14.1515C12.4641 14.5347 12.3149 14.895 12.044 15.1659C11.7731 15.4368 11.413 15.586 11.0298 15.586C10.2387 15.586 9.59484 14.9422 9.59484 14.1511C9.59474 13.7679 9.74404 13.4076 10.0149 13.1367C10.2858 12.8658 10.6459 12.7166 11.029 12.7166ZM8.02182 9.16488C8.29271 8.89399 8.65289 8.7448 9.03606 8.7448C9.82714 8.74485 10.471 9.38858 10.471 10.1797C10.4711 10.5629 10.3219 10.9231 10.0509 11.1941C9.78004 11.465 9.41994 11.6142 9.03684 11.6142C8.24567 11.6141 7.60179 10.9703 7.60174 10.1792C7.60168 9.7961 7.75087 9.43578 8.02182 9.16488ZM6.04349 13.1363C6.31439 12.8654 6.67456 12.7162 7.05768 12.7162C7.8488 12.7163 8.49268 13.3601 8.49273 14.1511C8.49279 14.5343 8.34355 14.8946 8.07265 15.1655C7.80176 15.4364 7.44163 15.5856 7.05852 15.5856C6.26735 15.5855 5.62346 14.9418 5.62341 14.1507C5.62341 13.7674 5.77254 13.4072 6.04349 13.1363ZM4.05082 17.1075C4.32172 16.8366 4.68184 16.6874 5.06495 16.6874C5.85344 16.6874 6.49558 17.327 6.4998 18.1145C6.4998 18.117 6.49964 18.1194 6.49964 18.1219C6.49964 18.1245 6.4998 18.1271 6.49985 18.1297C6.49796 18.5101 6.34909 18.8675 6.07993 19.1367C5.81078 19.4058 5.45345 19.5547 5.07308 19.5565C5.07044 19.5565 5.06791 19.5563 5.06527 19.5563C5.06284 19.5563 5.06021 19.5565 5.05778 19.5565C4.27025 19.5523 3.63079 18.9104 3.63074 18.1219C3.63069 17.7386 3.77993 17.3784 4.05082 17.1075ZM6.07998 23.1078C5.80909 23.3787 5.44897 23.5279 5.06585 23.5279C4.27473 23.5278 3.63085 22.884 3.63079 22.093C3.63074 21.7097 3.77998 21.3495 4.05087 21.0786C4.32003 20.8094 4.67736 20.6605 5.05773 20.6587C5.06037 20.6587 5.0629 20.6589 5.06553 20.6589C5.06795 20.6589 5.0706 20.6587 5.07302 20.6587C5.86056 20.6631 6.50001 21.305 6.50006 22.0935C6.50012 22.4765 6.35088 22.8368 6.07998 23.1078ZM7.24283 20.2997C7.17385 20.3687 7.10999 20.4412 7.05008 20.5164C6.93006 20.3656 6.79332 20.2289 6.64255 20.1088C6.7177 20.0489 6.79026 19.985 6.85924 19.916C6.92816 19.8471 6.99213 19.7745 7.05204 19.6993C7.17211 19.8501 7.30885 19.9868 7.45962 20.1069C7.38447 20.1667 7.3118 20.2307 7.24283 20.2997ZM7.60189 18.1145C7.60379 17.734 7.75266 17.3767 8.02182 17.1075C8.29271 16.8366 8.65289 16.6874 9.036 16.6874C9.82708 16.6874 10.471 17.3312 10.471 18.1223C10.4711 18.5055 10.3218 18.8657 10.0509 19.1367C9.78004 19.4076 9.41994 19.5568 9.03684 19.5568C8.24825 19.5567 7.60617 18.9172 7.60195 18.1296C7.60195 18.1271 7.60211 18.1247 7.60211 18.1222C7.60211 18.1196 7.60195 18.1171 7.60189 18.1145ZM10.0514 23.1081C9.78054 23.379 9.42034 23.5282 9.03724 23.5282C8.24614 23.5282 7.60221 22.8844 7.60216 22.0933C7.60211 21.7101 7.75129 21.3499 8.02224 21.0789C8.29314 20.808 8.65331 20.6588 9.03642 20.6588C9.82758 20.6589 10.4714 21.3027 10.4714 22.0938C10.4715 22.477 10.3223 22.8372 10.0514 23.1081ZM11.2143 20.3C11.1453 20.369 11.0814 20.4416 11.0215 20.5168C10.9013 20.3659 10.7644 20.229 10.6136 20.1089C10.6887 20.049 10.7613 19.985 10.8303 19.916C10.8993 19.8471 10.9632 19.7745 11.0231 19.6993C11.1433 19.8502 11.2802 19.9871 11.431 20.1072C11.3559 20.167 11.2833 20.2311 11.2143 20.3ZM11.9932 17.1079C12.2641 16.837 12.6243 16.6878 13.0074 16.6878C13.7986 16.6879 14.4424 17.3316 14.4424 18.1227C14.4425 18.506 14.2933 18.8662 14.0224 19.1371C13.7515 19.408 13.3913 19.5572 13.0082 19.5572C12.217 19.5571 11.5732 18.9133 11.5732 18.1222C11.5731 17.7391 11.7223 17.3788 11.9932 17.1079ZM14.0227 23.1085C13.7518 23.3794 13.3917 23.5285 13.0086 23.5285C12.2175 23.5285 11.5736 22.8847 11.5735 22.0936C11.5735 21.7104 11.7227 21.3502 11.9936 21.0792C12.2645 20.8083 12.6246 20.6592 13.0078 20.6592C13.7989 20.6592 14.4428 21.303 14.4428 22.0941C14.4429 22.4773 14.2936 22.8375 14.0227 23.1085Z" fill="white"/>
</svg>
