<svg width="27" height="27" viewBox="0 0 27 27" fill="none" xmlns="http://www.w3.org/2000/svg">
<path d="M26.8238 11.9109C25.5662 10.6533 25.5586 8.57819 26.8069 7.28514C27.0035 7.08164 27.0005 6.75822 26.8006 6.5582L26.3104 6.06808C26.1078 5.86553 25.7795 5.86563 25.577 6.06808C25.5096 6.13548 25.3999 6.13548 25.3325 6.06808C25.265 6.00069 25.2651 5.891 25.3325 5.82355C25.535 5.621 25.535 5.29262 25.3325 5.09017L24.8435 4.60122C24.641 4.39867 24.3126 4.39867 24.1102 4.60122C24.0661 4.64525 24.0147 4.65185 23.9879 4.65185C23.9612 4.65185 23.9097 4.64525 23.8657 4.60122C23.8217 4.55719 23.8151 4.50572 23.8151 4.47898C23.8151 4.45225 23.8217 4.40083 23.8657 4.35674C24.0682 4.15419 24.0682 3.82581 23.8657 3.62337L23.3767 3.13441C23.2795 3.03712 23.1476 2.98249 23.0101 2.98249C22.8725 2.98249 22.7406 3.03712 22.6434 3.13441C22.5994 3.17845 22.5479 3.18504 22.5212 3.18504C22.4944 3.18504 22.443 3.17845 22.3989 3.13441C22.3548 3.09038 22.3483 3.03891 22.3483 3.01218C22.3483 2.98544 22.3549 2.93397 22.3989 2.88994C22.6015 2.68738 22.6015 2.35901 22.3989 2.15656L21.91 1.66761C21.7074 1.46505 21.379 1.46505 21.1766 1.66761C21.1092 1.735 20.9995 1.735 20.9321 1.66761C20.8648 1.60016 20.8647 1.49052 20.9321 1.42308C21.1347 1.22052 21.1347 0.89225 20.9321 0.6897L20.442 0.199534C20.242 -0.000435263 19.9187 -0.00333528 19.7152 0.193047C18.4355 1.42788 16.3713 1.40942 15.1137 0.151915C14.9112 -0.0506383 14.5828 -0.0506383 14.3803 0.151915L0.151928 14.3801C-0.050625 14.5826 -0.050625 14.911 0.151928 15.1135C1.43253 16.3941 1.43253 18.4778 0.151928 19.7584C0.0546328 19.8557 0 19.9875 0 20.1251C0 20.2626 0.0546328 20.3945 0.151928 20.4918L0.640881 20.9808C0.843434 21.1833 1.17181 21.1832 1.37425 20.9808C1.41829 20.9368 1.46976 20.9302 1.49649 20.9302C1.52323 20.9302 1.5747 20.9368 1.61873 20.9808C1.66276 21.0248 1.66936 21.0763 1.66936 21.103C1.66936 21.1298 1.66276 21.1812 1.61873 21.2253C1.41618 21.4278 1.41618 21.7562 1.61873 21.9586L2.10768 22.4476C2.31024 22.6502 2.63861 22.6502 2.84106 22.4476C2.8851 22.4036 2.93656 22.397 2.9633 22.397C2.99004 22.397 3.04151 22.4036 3.08554 22.4476C3.12957 22.4916 3.13616 22.5431 3.13616 22.5698C3.13616 22.5966 3.12957 22.648 3.08554 22.6921C2.88299 22.8946 2.88299 23.223 3.08554 23.4255L3.57449 23.9144C3.77704 24.117 4.10542 24.117 4.30787 23.9144C4.37526 23.847 4.485 23.8471 4.5524 23.9144C4.61979 23.9818 4.61979 24.0915 4.5524 24.1589C4.34985 24.3614 4.34985 24.6898 4.5524 24.8923L5.04135 25.3812C5.2439 25.5838 5.57228 25.5838 5.77473 25.3812C5.81876 25.3372 5.87023 25.3306 5.89697 25.3306C5.9237 25.3306 5.97517 25.3372 6.01921 25.3812C6.0866 25.4486 6.0866 25.5583 6.01921 25.6257C5.81665 25.8283 5.81665 26.1566 6.01921 26.3591L6.50816 26.8481C6.60545 26.9454 6.73729 27 6.87493 27C7.01251 27 7.1444 26.9454 7.24159 26.8481C7.86908 26.2206 8.70086 25.8727 9.58374 25.8687C10.4665 25.863 11.2914 26.2038 11.9111 26.8236C12.0083 26.9209 12.1402 26.9755 12.2777 26.9755C12.4153 26.9755 12.5472 26.9209 12.6444 26.8236L26.8238 12.6443C27.0263 12.4418 27.0263 12.1134 26.8238 11.9109ZM12.2559 25.7453C11.5019 25.1525 10.5764 24.8315 9.59924 24.8315C9.59254 24.8315 9.58574 24.8315 9.57904 24.8315C8.6814 24.8356 7.8243 25.1103 7.10132 25.6165C7.13354 25.2702 7.01736 24.9125 6.75269 24.6478C6.44203 24.3371 6.00328 24.2311 5.60477 24.3294C5.62823 24.2348 5.64026 24.1366 5.64026 24.0366C5.64026 23.7134 5.51443 23.4095 5.28588 23.1809C5.05733 22.9523 4.75347 22.8265 4.43021 22.8265C4.33018 22.8265 4.23204 22.8386 4.13738 22.862C4.23583 22.4637 4.12968 22.0248 3.81902 21.7141C3.50815 21.4032 3.06872 21.2973 2.67036 21.396C2.76918 20.9975 2.66308 20.5581 2.35221 20.2473C2.12366 20.0187 1.81981 19.8929 1.49655 19.8929C1.45789 19.8929 1.41961 19.8947 1.38164 19.8982C2.4532 18.3539 2.40289 16.2612 1.23018 14.7685L14.7687 1.23023C15.5168 1.81901 16.4337 2.14248 17.3994 2.15034C18.2878 2.15804 19.1328 1.89943 19.8514 1.41311C19.8467 1.45667 19.8443 1.50086 19.8443 1.54532C19.8443 1.86852 19.9701 2.17243 20.1986 2.40104C20.5093 2.7117 20.9482 2.81785 21.3466 2.71939C21.3231 2.81405 21.3111 2.91224 21.3111 3.01223C21.3111 3.33544 21.437 3.63935 21.6655 3.86784C21.8941 4.09645 22.1979 4.22227 22.5211 4.22227C22.6209 4.22227 22.7187 4.2103 22.8132 4.18699C22.7899 4.28139 22.7779 4.37926 22.7779 4.47898C22.7779 4.80224 22.9038 5.1061 23.1323 5.3347C23.3609 5.56331 23.6647 5.68908 23.988 5.68908C24.088 5.68908 24.1862 5.67706 24.2808 5.65359C24.1824 6.05189 24.2885 6.4908 24.5991 6.80151C24.8683 7.07062 25.2336 7.1861 25.5858 7.14829C25.0929 7.87213 24.8291 8.7259 24.8323 9.6156C24.8357 10.5863 25.1569 11.5064 25.7456 12.2558L12.2559 25.7453Z" fill="white"/>
<path d="M24.1622 11.6388C23.9597 11.4362 23.6313 11.4362 23.4288 11.6388L11.8871 23.1803C10.6488 22.7071 9.29114 22.6302 7.99904 22.9608L4.03151 18.9933C4.35182 17.7118 4.26966 16.3646 3.79711 15.1352L15.1394 3.79301C16.3385 4.24959 17.6544 4.33755 18.9088 4.0445L22.9475 8.08343C22.733 8.98087 22.7114 9.9241 22.8865 10.8305C22.9409 11.1118 23.2126 11.2955 23.4941 11.2413C23.7753 11.187 23.9593 10.915 23.9049 10.6338C23.7412 9.7865 23.7821 8.90082 24.0231 8.07246C24.0759 7.89079 24.0257 7.69473 23.8918 7.56089L19.4326 3.10151C19.2995 2.96841 19.1049 2.91783 18.9239 2.96946C17.6988 3.3183 16.3864 3.22543 15.2289 2.70816C15.0326 2.62036 14.8026 2.66286 14.6506 2.81495L2.81815 14.6473C2.66569 14.7998 2.6235 15.0306 2.7121 15.2272C3.24582 16.411 3.33215 17.7496 2.9551 18.9966C2.89973 19.1795 2.94956 19.3782 3.08477 19.5133L7.48045 23.909C7.6164 24.045 7.81652 24.0946 8.00004 24.0379C9.25691 23.6502 10.6052 23.731 11.7965 24.2654C11.8647 24.296 11.937 24.3108 12.0086 24.3108C12.1434 24.3108 12.2761 24.2582 12.3755 24.1589L24.1623 12.3721C24.3647 12.1696 24.3647 11.8412 24.1622 11.6388Z" fill="white"/>
</svg>
