<svg width="32" height="27" viewBox="0 0 32 27" fill="none" xmlns="http://www.w3.org/2000/svg">
<path d="M0 8.35724V9.643H1.9286V21.2199C1.9286 24.4071 4.52511 27 7.71613 27H23.7835C26.9746 27 29.5711 24.4073 29.5711 21.2199V9.6431H31.4997V8.35741L0 8.35724ZM28.2855 21.2199C28.2855 23.6981 26.2658 25.7143 23.7835 25.7143H7.71613C5.23392 25.7143 3.21433 23.6981 3.21433 21.2199V9.6431H28.2855V21.2199Z" fill="white"/>
<path d="M2.57164 7.07152H28.9285C29.2838 7.07152 29.5714 6.78358 29.5714 6.42865V5.14292C29.5714 4.07954 28.705 3.21432 27.6397 3.21432H19.8705C19.5629 1.39308 17.979 0 16.0714 0C14.1639 0 12.5799 1.39308 12.2723 3.21432H3.8605C2.79521 3.21432 1.92877 4.07937 1.92877 5.14292V6.42865C1.92877 6.78375 2.21619 7.07152 2.57164 7.07152ZM16.0714 1.28608C17.2663 1.28608 18.2641 2.10884 18.5515 3.21467H13.5913C13.8787 2.10884 14.8765 1.28608 16.0714 1.28608ZM3.21451 5.14327C3.21451 4.78887 3.50453 4.5004 3.8605 4.5004H27.6397C28.0019 4.5004 28.2857 4.78295 28.2857 5.14327V5.78613H3.21451V5.14327Z" fill="white"/>
<path d="M5.14308 21.2144C5.49835 21.2144 5.78595 20.9265 5.78595 20.5715V12.2145C5.78595 11.8595 5.49835 11.5716 5.14308 11.5716C4.78781 11.5716 4.50022 11.8595 4.50022 12.2145V20.5715C4.50022 20.9266 4.78781 21.2144 5.14308 21.2144Z" fill="white"/>
</svg>
