<svg width="102" height="102" viewBox="0 0 102 102" fill="none" xmlns="http://www.w3.org/2000/svg">
<circle cx="51" cy="51" r="50" stroke="#77A117" stroke-width="2"/>
<path d="M43.1307 46.8627C40.0277 46.8627 37.5033 49.3872 37.5033 52.4902V56.2418C37.5033 59.3448 40.0277 61.8693 43.1307 61.8693C46.2337 61.8693 48.7582 59.3448 48.7582 56.2418V52.4902C48.7582 49.3872 46.2337 46.8627 43.1307 46.8627ZM45.0065 56.2418C45.0065 57.2762 44.165 58.1176 43.1307 58.1176C42.0964 58.1176 41.2549 57.2762 41.2549 56.2418V52.4902C41.2549 51.4559 42.0964 50.6144 43.1307 50.6144C44.165 50.6144 45.0065 51.4559 45.0065 52.4902V56.2418Z" fill="#77A117"/>
<path d="M51.8927 58.9615L59.4 47.7073L62.5214 49.7894L55.014 61.0436L51.8927 58.9615Z" fill="#77A117"/>
<path d="M51.5719 46.8627H55.3235V50.6144H51.5719V46.8627Z" fill="#77A117"/>
<path d="M59.0752 58.1176H62.8268V61.8693H59.0752V58.1176Z" fill="#77A117"/>
<path d="M50.634 27C40.5656 32.4875 30 42.6958 30 54.366C30 65.7706 39.2294 75 50.634 75C62.0386 75 71.268 65.7706 71.268 54.366C71.268 42.736 60.7409 32.5085 50.634 27ZM50.634 71.2484C41.3251 71.2484 33.7516 63.6749 33.7516 54.366C33.7516 44.8211 42.5549 36.2423 50.634 31.3112C58.7026 36.2359 67.5163 44.8122 67.5163 54.366C67.5163 63.675 59.9429 71.2484 50.634 71.2484Z" fill="#77A117"/>
</svg>
