<svg width="102" height="102" viewBox="0 0 102 102" fill="none" xmlns="http://www.w3.org/2000/svg">
<circle cx="51" cy="51" r="50" stroke="#77A117" stroke-width="2"/>
<path d="M70.6684 47.3351L70.4932 46.3775L69.5301 46.2032C66.6025 45.6403 61.4577 45.8666 58.579 47.2752C63.3219 37.7994 53.9296 29.241 51.3026 27.5541L50.4976 27L49.6926 27.5541C46.9543 29.3343 37.6852 37.8388 42.4292 47.3257C39.5486 45.8568 34.4188 45.6397 31.4679 46.2032L30.5047 46.3775L30.3295 47.3351C29.0699 54.3264 30.7994 67.8442 46.6464 67.662C47.6042 67.662 48.4401 67.6102 49.0845 67.5503V75H51.9135V67.5503C68.9445 69.0922 72.1821 56.1561 70.6684 47.3351ZM50.4975 30.4868C57.7016 36.3765 59.9384 44.1543 51.9121 51.7048V41.723H49.0831V51.7048C41.0376 44.1374 43.3185 36.3545 50.4975 30.4868ZM46.6465 64.8494C34.6589 64.9941 32.2223 56.2892 32.9848 48.8408C44.3842 47.7811 49.3291 53.7731 49.0758 62.852L41.9763 55.7937L39.9759 57.7825L47.08 64.8454C46.9392 64.848 46.794 64.8494 46.6465 64.8494ZM64.6546 61.3941C63.1835 62.9983 59.3672 65.0274 53.9178 64.8454L61.0219 57.7825L59.0216 55.7937L51.9171 62.857C51.9052 62.2051 51.919 61.4731 51.9795 60.6938C52.8181 51.409 58.5162 48.1632 68.013 48.8407C68.255 51.2853 68.4525 57.6181 64.6546 61.3941Z" fill="#77A117"/>
</svg>
