<svg width="102" height="102" viewBox="0 0 102 102" fill="none" xmlns="http://www.w3.org/2000/svg">
<path d="M36.2812 68.7188V59.5312H49.4883V56.25H36.2812V52.9688H49.4883V49.6875H36.2812V46.4062H59.4141V50.7981C59.949 50.7152 60.4969 50.6719 61.0547 50.6719C61.6077 50.6719 62.1559 50.7153 62.6953 50.7991V41.4844C62.6953 39.3454 61.3238 37.5208 59.4141 36.8436V30H36.2812V36.8436C34.3715 37.5208 33 39.3454 33 41.4844V72H51.3398L51.0415 68.7188H36.2812ZM39.5625 33.2812H56.1328V36.5625H39.5625V33.2812ZM36.2812 41.4844C36.2812 40.5797 37.0172 39.8438 37.9219 39.8438H57.7734C58.6781 39.8438 59.4141 40.5797 59.4141 41.4844V43.125H36.2812V41.4844ZM61.0547 53.9531C56.9838 53.9531 53.6719 57.2651 53.6719 61.3359V61.4103L54.6346 72H67.4748L68.2205 63.7969H75V60.5156H68.3922C67.9828 56.8294 64.8483 53.9531 61.0547 53.9531ZM64.4783 68.7188H57.631L57.1836 63.7969H64.9257L64.4783 68.7188ZM57.0355 60.5156C57.4166 58.6458 59.074 57.2344 61.0547 57.2344C63.0354 57.2344 64.6927 58.6458 65.0739 60.5156H57.0355Z" fill="#77A117"/>
<circle cx="51" cy="51" r="50" stroke="#77A117" stroke-width="2"/>
</svg>
