<svg width="102" height="102" viewBox="0 0 102 102" fill="none" xmlns="http://www.w3.org/2000/svg">
<circle cx="51" cy="51" r="50" stroke="#77A117" stroke-width="2"/>
<path d="M75.6387 37.0251C73.4705 34.9003 70.3168 34.1705 67.408 35.1207L53.6919 39.6007C51.7351 36.2521 48.9248 33.4206 45.5115 31.4137L41.406 29L37.3005 31.4137C32.6121 34.1701 29.0596 38.4814 27.297 43.5534L24.9493 50.3104C24.0194 52.9865 23.7711 55.7419 24.2114 58.5002C24.6251 61.0925 25.6633 63.6049 27.2136 65.7656C30.4451 70.2697 35.5047 72.9061 41.0941 72.9987C41.1978 73.0004 41.6142 73.0004 41.7171 72.9987C44.1704 72.9581 46.5213 72.4272 48.6606 71.4638C50.864 72.472 53.2698 72.9988 55.7225 72.9987C57.1068 72.9987 58.5065 72.8316 59.891 72.4904C65.6142 71.0801 70.1418 66.9716 72.0022 61.5004L77.582 45.092C78.5514 42.2409 77.8068 39.15 75.6387 37.0251ZM70.804 39.9536C72.39 39.0127 73.2885 39.1075 73.4012 39.218C73.514 39.3286 73.6106 40.209 72.6508 41.7634L64.2346 55.3922C62.5056 58.1922 60.0207 60.8773 57.2279 62.9693C57.8888 61.5452 58.3552 60.0371 58.6006 58.5001C59.0408 55.7418 58.7925 52.9864 57.8627 50.3103L57.0904 48.0877L70.804 39.9536ZM67.2336 38.4466L56.0461 45.0824L55.5149 43.5536C55.3815 43.1695 55.2364 42.7903 55.0826 42.4153L67.2336 38.4466ZM52.5195 44.5532L54.8674 51.3101C56.3674 55.6271 55.6905 60.2457 53.0101 63.9817C50.6251 67.3059 47.0248 69.3857 42.9881 69.8159V33.5466L43.8837 34.0731C47.9311 36.4526 50.998 40.1745 52.5195 44.5532ZM29.802 63.9818C27.1214 60.2458 26.4445 55.6272 27.9445 51.3101L30.2924 44.5533C31.814 40.1746 34.8809 36.4526 38.9282 34.0731L39.8238 33.5466V69.8161C35.7876 69.386 32.1871 67.3062 29.802 63.9818ZM69.0004 60.5198C67.4832 64.9813 63.7895 68.332 59.1195 69.4827C56.9372 70.0206 54.6518 70.0371 52.511 69.5308C52.3643 69.4962 52.2192 69.4583 52.0747 69.4188C52.2157 69.3102 52.3551 69.1989 52.4929 69.0857C54.5918 68.3641 56.8343 67.15 59.015 65.5351C62.1696 63.1988 64.9849 60.1668 66.9417 56.9979L74.1887 45.2624L69.0004 60.5198Z" fill="#77A117"/>
<path d="M47.1224 51.7491H50.2867V54.8502H47.1224V51.7491Z" fill="#77A117"/>
<path d="M33.3059 46.1881H36.4702V49.2893H33.3059V46.1881Z" fill="#77A117"/>
<path d="M31.5552 55.8009H34.7194V58.9021H31.5552V55.8009Z" fill="#77A117"/>
</svg>
