<svg width="102" height="102" viewBox="0 0 102 102" fill="none" xmlns="http://www.w3.org/2000/svg">
<circle cx="51" cy="51" r="50" stroke="#77A117" stroke-width="2"/>
<path d="M73.0647 57.2403L68.3583 54.5306V51.663L73.0647 48.9533V44.0805L76 42.9223L74.8359 40.0454L72.023 41.1556L68.3583 39.0467V35.2903H65.2206V39.0467L62.083 40.8537L58.9453 39.0467V35.2903H55.8077V39.0467L51.1012 41.7564V48.9533L55.8077 51.663V54.5306L51.1012 57.2403V64.4372L55.8077 67.1468V70.9032H58.9453V67.1468L62.083 65.3399L65.2206 67.1468V70.9032H68.3583V67.1468L72.023 65.0379L74.8359 66.1481L76 63.2712L73.0647 62.113V57.2403ZM63.6518 43.5339L66.7894 41.727L69.9271 43.5339V47.1757L66.7894 48.9827L63.6518 47.1757V43.5339ZM54.2388 47.1757V43.5339L57.3765 41.727L60.5141 43.5339V47.1757L57.3765 48.9827L54.2388 47.1757ZM60.5141 62.6596L57.3765 64.4666L54.2388 62.6596V59.0178L57.3765 57.2108L60.5141 59.0178V62.6596ZM58.9453 54.5306V51.663L62.083 49.856L65.2206 51.663V54.5306L62.083 56.3375L58.9453 54.5306ZM69.9271 62.6596L66.7894 64.4666L63.6518 62.6596V59.0178L66.7894 57.2108L69.9271 59.0178V62.6596Z" fill="#77A117"/>
<path d="M32.4055 41.0627L29.6208 39.6351C29.1063 40.6137 28.6388 41.5907 28.2277 42.5445L31.1144 43.7569C31.4909 42.8774 31.927 41.9685 32.4055 41.0627Z" fill="#77A117"/>
<path d="M46.7775 39.1613L49.4963 37.6129C47.141 33.6418 44.3841 29.9165 41.2678 26.4939L40.8034 26H40.1194C38.2149 26 31.265 36.7396 31.1991 36.848L33.8896 38.4382C35.3026 36.1345 36.8593 33.9196 38.5506 31.8065V46.129L34.7854 43.3419L32.9028 45.8194L38.5506 50V56.9677L34.7854 54.1806L32.9028 56.6581L38.5506 60.8387V66.1528C32.5891 65.4173 29.1769 60.4083 29.1376 52.1352L26 52.1507C26.0471 62.2648 30.7065 68.5512 38.5506 69.2821V74H41.6882V69.2697C44.385 69.0495 46.9425 67.9956 48.9974 66.2581L46.9297 63.9355C45.4504 65.1794 43.6219 65.9486 41.6882 66.1404V60.8387L47.336 56.6581L45.4534 54.1806L41.6882 56.9677V50L47.336 45.8194L45.4534 43.3419L41.6882 46.129V31.8034C43.5559 34.1363 45.2564 36.5948 46.7775 39.1613Z" fill="#77A117"/>
<path d="M30.0789 46.5192L27.0841 45.5902C26.7482 46.6407 26.4831 47.712 26.2902 48.7969L29.3808 49.3218C29.5505 48.3734 29.7837 47.4371 30.0789 46.5192Z" fill="#77A117"/>
</svg>
