<svg width="102" height="102" viewBox="0 0 102 102" fill="none" xmlns="http://www.w3.org/2000/svg">
<circle cx="51" cy="51" r="50" stroke="#77A117" stroke-width="2"/>
<path d="M63.4175 53.393C60.6391 53.393 58.0863 54.3923 56.0884 56.0552C56.0466 56.0534 56.0037 56.0515 55.959 56.0499C57.8671 53.1187 58.4056 48.2081 58.4685 47.5698L58.6332 45.8976L56.9839 45.7658C56.8397 45.7543 56.4726 45.7279 55.9553 45.7108C57.8664 42.7803 58.4056 37.8637 58.4685 37.2251L58.6332 35.5529L56.9839 35.421C56.4385 35.3774 52.7233 35.1218 49.6732 35.9566C50.4528 34.5762 51.0432 33.0848 51.0432 31.7327C51.0432 30.0426 50.1944 27.9861 48.448 25.4457C47.2488 23.7009 46.0607 22.3792 46.0107 22.3238L44.8166 21L43.6225 22.3236C43.5725 22.379 42.3844 23.7006 41.1851 25.4455C39.4388 27.986 38.5899 30.0424 38.5899 31.7325C38.5899 33.0844 39.1803 34.576 39.9599 35.9564C36.9099 35.1217 33.1946 35.3771 32.6492 35.4208L31 35.5526L31.1647 37.2248C31.2276 37.8636 31.7666 42.78 33.6777 45.7106C33.1605 45.7277 32.7935 45.754 32.6492 45.7656L31 45.8974L31.1647 47.5696C31.2276 48.2083 31.7666 53.1247 33.6777 56.0552C33.1605 56.0724 32.7935 56.0987 32.6492 56.1103L31 56.2422L31.1647 57.9144C31.2386 58.664 31.9679 65.3084 34.8029 67.7157C36.7852 69.3991 40.5919 69.6857 42.9552 69.6857C43.0378 69.6857 43.1179 69.6853 43.1968 69.6846V77H46.4362V69.7051C46.6037 69.7083 46.7789 69.7103 46.962 69.7103C48.5498 69.7103 50.6721 69.5731 52.4645 68.986C54.0314 73.6007 58.3492 76.925 63.4175 76.925C69.804 76.925 75 71.6467 75 65.159C75 58.6712 69.8041 53.393 63.4175 53.393ZM52.7526 54.8463C51.7222 55.7214 48.989 56.0475 46.6753 56.0516C47.0897 53.7388 47.8903 51.0645 48.9207 50.1895C49.9511 49.3145 52.6845 48.9883 54.9981 48.9843C54.5837 51.2969 53.7831 53.9713 52.7526 54.8463ZM40.7124 50.1895C41.7431 51.0647 42.5439 53.7405 42.9582 56.0532C40.6466 56.0505 37.9149 55.7246 36.8805 54.8463C35.85 53.9713 35.0494 51.2965 34.6351 48.9843C36.9489 48.9884 39.682 49.3145 40.7124 50.1895ZM52.7526 44.5015C51.722 45.3767 48.9878 45.7028 46.6737 45.7068C47.0862 43.3963 47.8863 40.723 48.9207 39.8447C49.9515 38.9694 52.6857 38.6433 54.9997 38.6394C54.5872 40.9499 53.787 43.6231 52.7526 44.5015ZM44.8166 25.9857C46.3021 27.9094 47.8039 30.3589 47.8039 31.7326C47.8039 33.0969 46.2973 35.4365 44.8166 37.2424C43.3356 35.4362 41.8292 33.097 41.8292 31.7326C41.8292 30.3588 43.3309 27.9094 44.8166 25.9857ZM40.7124 39.8447C41.7431 40.7199 42.5439 43.3956 42.9582 45.7083C40.6467 45.7057 37.9148 45.3798 36.8805 44.5015C35.85 43.6264 35.0494 40.9517 34.6351 38.6394C36.9489 38.6436 39.682 38.9698 40.7124 39.8447ZM36.8805 65.191C35.85 64.316 35.0494 61.6413 34.6351 59.329C36.949 59.3332 39.682 59.6593 40.7124 60.5343C41.7428 61.4093 42.5436 64.084 42.9579 66.3963C40.6439 66.3922 37.9109 66.066 36.8805 65.191ZM46.6712 66.4195C47.0843 64.1015 47.8869 61.4122 48.9207 60.5344C49.725 59.8514 51.5208 59.5001 53.3348 59.3743C52.3807 61.0836 51.8351 63.0577 51.8351 65.1591C51.8351 65.3499 51.84 65.5396 51.8489 65.7283C50.5347 66.2702 48.4359 66.439 46.6712 66.4195ZM63.4175 73.6343C58.8172 73.6343 55.0744 69.8323 55.0744 65.159C55.0744 60.4857 58.8171 56.6836 63.4175 56.6836C68.0178 56.6836 71.7607 60.4857 71.7607 65.159C71.7607 69.8323 68.018 73.6343 63.4175 73.6343Z" fill="#77A117"/>
<path d="M66.0283 60.1801L63.4176 62.8322L60.8069 60.1801L58.5164 62.5069L61.127 65.159L58.5164 67.811L60.8069 70.1379L63.4176 67.4858L66.0283 70.1379L68.3188 67.811L65.7081 65.159L68.3188 62.5069L66.0283 60.1801Z" fill="#77A117"/>
</svg>
