<svg width="70" height="70" viewBox="0 0 70 70" fill="none" xmlns="http://www.w3.org/2000/svg">
<circle cx="35" cy="35" r="35" fill="white"/>
<circle cx="35" cy="35" r="31.5" fill="white" stroke="#77A117"/>
<path d="M48 25.1205C48.0011 24.134 47.6272 23.2064 46.9473 22.5085C46.2674 21.8107 45.3631 21.4263 44.4011 21.4263C43.9434 21.4263 43.5054 21.5158 43.1019 21.677L43.1055 19.6673C43.1078 18.68 42.7346 17.7513 42.0544 17.0523C41.3743 16.3533 40.4695 15.9683 39.5066 15.9683H39.4535C38.7319 15.9683 38.0593 16.1885 37.4951 16.5657C37.3779 16.3957 37.2467 16.2341 37.1003 16.0838C36.4202 15.3849 35.5154 15 34.5526 15H34.4873C32.8424 15 31.4528 16.1377 31.025 17.6856C30.5841 17.4875 30.0976 17.3769 29.5861 17.3769H29.5444C27.5599 17.3769 25.9454 19.0323 25.9454 21.067V28.5148C25.535 28.3488 25.0884 28.2565 24.621 28.2565C22.6244 28.2565 21 29.922 21 31.9693V41.1662C21 48.7942 27.0524 55 34.4918 55C38.099 55 41.4893 53.5587 44.0383 50.9417C46.5873 48.3246 47.9884 44.8465 47.9836 41.1477L47.9785 37.2181L48 25.1205ZM45.6869 41.1509C45.6909 44.2199 44.5282 47.106 42.4132 49.2776C40.2981 51.4492 37.4849 52.645 34.4917 52.645C28.3187 52.645 23.2966 47.4955 23.2966 41.1661V31.9693C23.2966 31.2205 23.8908 30.6114 24.621 30.6114C25.3513 30.6114 25.9454 31.2205 25.9454 31.9693V38.1557C25.9454 38.806 26.4596 39.3331 27.0938 39.3331C29.133 39.3331 30.792 41.0342 30.792 43.1251V45.052C30.792 45.7023 31.3061 46.2295 31.9403 46.2295C32.5745 46.2295 33.0886 45.7023 33.0886 45.052V43.1251C33.0886 40.1383 31.0003 37.6422 28.2421 37.0914V21.067C28.2421 20.3307 28.8263 19.7317 29.5444 19.7317H29.5861C30.3041 19.7317 30.8882 20.3307 30.8884 21.0668V31.9281C30.8884 32.5784 31.4025 33.1056 32.0367 33.1056C32.6709 33.1056 33.185 32.5784 33.185 31.9281C33.185 30.1841 33.185 20.1563 33.185 18.6901C33.185 17.9538 33.7692 17.3548 34.4873 17.3548H34.5526C34.901 17.3548 35.2284 17.4941 35.4745 17.747C35.7205 17.9998 35.8556 18.3358 35.8549 18.6934C35.8472 22.6322 35.8359 28.024 35.8294 31.9368C35.8282 32.587 36.3412 33.1152 36.9754 33.1165H36.9777C37.6109 33.1165 38.1247 32.5909 38.126 31.9413C38.131 29.2934 38.1445 22.1899 38.1512 19.6553C38.1529 18.9207 38.7371 18.3231 39.4535 18.3231H39.5066C39.855 18.3231 40.1824 18.4623 40.4286 18.7153C40.6746 18.9682 40.8097 19.3043 40.8089 19.6621C40.8015 23.4908 40.7894 29.5455 40.7837 33.3411C40.7825 33.9914 41.2957 34.5196 41.9299 34.5208H41.9321C42.5653 34.5207 43.0792 33.9951 43.0804 33.3455C43.0819 32.7615 43.0932 25.3616 43.0989 25.1093C43.1026 24.3768 43.6867 23.7809 44.4012 23.7809C44.7492 23.7809 45.0764 23.9199 45.3225 24.1725C45.5685 24.425 45.7038 24.7607 45.7034 25.1167L45.6819 37.2174L45.6869 41.1509Z" fill="#77A117"/>
</svg>
