<svg width="70" height="70" viewBox="0 0 70 70" fill="none" xmlns="http://www.w3.org/2000/svg">
<circle cx="35" cy="35" r="35" fill="white"/>
<circle cx="35" cy="35" r="31.5" fill="white" stroke="#77A117"/>
<path d="M40.0468 35.9297C40.0468 39.2252 42.7279 41.9062 46.0233 41.9062C49.3187 41.9062 51.9997 39.2252 51.9997 35.9297C51.9997 35.7676 51.9576 35.5967 51.8744 35.4459L47.5475 27.6575C47.595 27.6377 47.6424 27.6183 47.6893 27.5966L51.4206 25.8772C51.9201 25.647 52.1386 25.0553 51.9083 24.5557C51.6781 24.0561 51.0865 23.8376 50.5868 24.0679L46.8556 25.7873C46.5944 25.9077 46.3143 25.9687 46.0233 25.9687C45.7773 25.9687 45.5377 25.9247 45.3109 25.8378L37.3602 22.8178C37.7533 22.3119 37.9882 21.6772 37.9882 20.9883C37.9882 19.3405 36.6477 18 35 18C33.3523 18 32.0118 19.3405 32.0118 20.9883C32.0118 21.6772 32.2467 22.3119 32.6398 22.8178L24.6891 25.8379C24.4624 25.9247 24.2227 25.9688 23.9768 25.9688C23.6857 25.9688 23.4057 25.9077 23.1444 25.7874L19.4132 24.068C18.9136 23.8378 18.3219 24.0562 18.0917 24.5558C17.8614 25.0554 18.0798 25.6471 18.5794 25.8773L22.3107 27.5967C22.3575 27.6183 22.4049 27.6378 22.4524 27.6575L18.1256 35.4459L18.1239 35.4492C18.0427 35.5965 18.0002 35.7665 18.0002 35.9297C18.0002 39.2252 20.6813 41.9062 23.9767 41.9062C27.2721 41.9062 29.9532 39.2252 29.9532 35.9297C29.9532 35.7616 29.908 35.5915 29.8295 35.4492L29.8278 35.4459L25.5022 27.6597L34.0038 24.4287V37.9219H33.0077C32.4576 37.9219 32.0117 38.3679 32.0117 38.918V46.0234H27.0313C25.3836 46.0234 24.043 47.364 24.043 49.0117V50.0078H23.047C22.4969 50.0078 22.0509 50.4538 22.0509 51.0039C22.0509 51.554 22.4969 52 23.047 52H46.9528C47.5029 52 47.9489 51.554 47.9489 51.0039C47.9489 50.4538 47.5029 50.0078 46.9528 50.0078H45.9567V49.0117C45.9567 47.364 44.6162 46.0234 42.9685 46.0234H37.9881V38.918C37.9881 38.3679 37.5421 37.9219 36.992 37.9219H35.996V24.4287L44.4976 27.6597L40.172 35.4459C40.0883 35.5967 40.0468 35.7694 40.0468 35.9297ZM43.9647 49.0117V50.0078H26.0353V49.0117C26.0353 48.4625 26.4822 48.0156 27.0314 48.0156H42.9686C43.5179 48.0156 43.9647 48.4625 43.9647 49.0117ZM34.0039 46.0234V39.9141H35.9961V46.0234H34.0039ZM46.0233 39.9141C44.1702 39.9141 42.6087 38.6423 42.1652 36.9258H49.8814C49.4378 38.6423 47.8763 39.9141 46.0233 39.9141ZM42.7357 34.9336L46.0232 29.0159L49.3107 34.9336H42.7357ZM35 19.9922C35.5493 19.9922 35.9961 20.439 35.9961 20.9883C35.9961 21.5375 35.5493 21.9844 35 21.9844C34.4508 21.9844 34.0039 21.5375 34.0039 20.9883C34.0039 20.439 34.4508 19.9922 35 19.9922ZM27.2643 34.9336H20.6892L23.9767 29.0159L27.2643 34.9336ZM23.9768 39.9141C22.1237 39.9141 20.5621 38.6423 20.1187 36.9258H27.8348C27.3914 38.6423 25.8298 39.9141 23.9768 39.9141Z" fill="#77A117"/>
</svg>
