<svg width="70" height="70" viewBox="0 0 70 70" fill="none" xmlns="http://www.w3.org/2000/svg">
<circle cx="35" cy="35" r="35" fill="white"/>
<circle cx="35" cy="35" r="31.5" fill="white" stroke="#77A117"/>
<path fill-rule="evenodd" clip-rule="evenodd" d="M42.4935 23.7683C41.7119 23.3154 40.714 23.5873 40.2648 24.3763C39.8157 25.1644 40.0852 26.1707 40.8668 26.6245C42.6756 27.6774 44.1402 29.1834 45.1552 30.9565C46.164 32.7194 46.7209 34.751 46.7209 36.8688C46.7209 40.1336 45.409 43.0893 43.288 45.2293C41.1671 47.3684 38.2367 48.6925 34.9999 48.6925C31.7631 48.6925 28.8327 47.3684 26.7118 45.2293C24.5908 43.0893 23.2789 40.1336 23.2789 36.8688C23.2789 34.751 23.8358 32.7194 24.8446 30.9565C25.8597 29.1834 27.3243 27.6774 29.133 26.6245C29.9147 26.1707 30.1842 25.1644 29.735 24.3763C29.2859 23.5873 28.288 23.3154 27.5064 23.7683C25.1813 25.1225 23.3058 27.0458 22.0141 29.3027C20.7163 31.57 20 34.1707 20 36.8688C20 41.0466 21.6789 44.8293 24.3935 47.5676C27.108 50.3059 30.8581 52 34.9999 52C39.1419 52 42.8919 50.3059 45.6064 47.5676C48.3209 44.8293 50 41.0466 50 36.8688C50 34.1707 49.2838 31.57 47.9858 29.3027C46.694 27.0458 44.8185 25.1226 42.4935 23.7683Z" fill="#77A117"/>
<path fill-rule="evenodd" clip-rule="evenodd" d="M36.6394 19.6537C36.6394 18.7399 35.9054 18 34.9999 18C34.0945 18 33.3604 18.7399 33.3604 19.6538L33.3605 30.7391C33.3605 31.653 34.0944 32.3929 34.9999 32.3929C35.9054 32.3929 36.6394 31.653 36.6394 30.7391V19.6537Z" fill="#77A117"/>
</svg>
