<svg width="231" height="43" viewBox="0 0 231 43" fill="none" xmlns="http://www.w3.org/2000/svg">
<path d="M57.2462 23.1094C57.2462 28.7705 52.4871 33.3618 46.6192 33.3618C40.7512 33.3618 35.9922 28.7705 35.9922 23.1094C35.9922 17.4482 40.7512 12.8569 46.6192 12.8569C52.4871 12.8569 57.2462 17.4482 57.2462 23.1094ZM46.6192 17.0916C43.1539 17.0916 40.3816 19.8108 40.3816 23.1094C40.3816 26.4525 43.2001 29.1271 46.6192 29.1271C50.0845 29.1271 52.8568 26.408 52.8568 23.1094C52.8568 19.7662 50.0383 17.0916 46.6192 17.0916Z" fill="#73994B"/>
<path d="M8.08575 33.3618V29.1272H10.627C14.0923 29.1272 16.8646 26.408 16.8646 23.1094C16.8646 19.7662 14.0461 17.0917 10.627 17.0917C7.16166 17.0917 4.3432 19.8108 4.3432 23.1094V42.9011L0 38.7555V23.1094C0 17.4483 4.75904 12.857 10.627 12.857C16.4949 12.857 21.254 17.4483 21.254 23.1094C21.254 28.7705 16.4949 33.3618 10.627 33.3618H8.08575Z" fill="#73994B"/>
<path d="M93.3809 23.1094C93.3809 28.7705 88.6219 33.3618 82.7539 33.3618C76.886 33.3618 72.127 28.7705 72.127 23.1094C72.127 17.4482 76.886 12.8569 82.7539 12.8569C88.6219 12.8569 93.3809 17.4482 93.3809 23.1094ZM82.7539 17.0916C79.2886 17.0916 76.5164 19.8108 76.5164 23.1094C76.5164 26.4525 79.3348 29.1271 82.7539 29.1271C86.2193 29.1271 88.9915 26.408 88.9915 23.1094C88.9915 19.7662 86.1731 17.0916 82.7539 17.0916Z" fill="#73994B"/>
<path d="M64.1284 29.2163V12.5896H59.7852V33.3619H71.521V29.2163H64.1284Z" fill="#73994B"/>
<path d="M24.209 22.9755C24.209 17.3144 28.968 12.7231 34.836 12.7231V16.9578C31.3706 16.9578 28.5984 19.6769 28.5984 22.9755V33.4062H24.209V22.9755Z" fill="#73994B"/>
<path d="M117.177 33.3617H112.833V23.243C112.833 19.8998 110.015 17.2252 106.596 17.2252C103.13 17.2252 100.312 19.9444 100.312 23.243V33.3617H95.9688V23.243C95.9688 17.5818 100.728 12.9905 106.596 12.9905C112.464 12.9905 117.223 17.5818 117.223 23.243L117.177 33.3617Z" fill="#73994B"/>
<path d="M121.147 12.7231C121.609 12.7231 122.025 12.8122 122.441 13.0351C122.857 13.258 123.18 13.57 123.411 13.9712C123.642 14.3724 123.781 14.8181 123.781 15.2639C123.781 15.7096 123.642 16.1108 123.411 16.512C123.18 16.9132 122.857 17.2252 122.441 17.4481C122.025 17.671 121.563 17.8047 121.147 17.8047C120.685 17.8047 120.269 17.671 119.854 17.4481C119.438 17.2252 119.114 16.9132 118.883 16.512C118.652 16.1108 118.514 15.6651 118.514 15.2639C118.514 14.8181 118.652 14.4169 118.883 13.9712C119.114 13.57 119.438 13.258 119.854 13.0351C120.269 12.8568 120.685 12.7231 121.147 12.7231ZM121.147 13.1688C120.778 13.1688 120.408 13.258 120.085 13.4363C119.715 13.6146 119.438 13.882 119.253 14.2386C119.068 14.5952 118.976 14.9518 118.976 15.3084C118.976 15.6651 119.068 16.0217 119.253 16.3783C119.438 16.7349 119.715 16.9578 120.085 17.1806C120.454 17.3589 120.778 17.4481 121.194 17.4481C121.563 17.4481 121.933 17.3589 122.302 17.1806C122.672 17.0023 122.903 16.7349 123.134 16.3783C123.319 16.0217 123.411 15.7096 123.411 15.3084C123.411 14.9518 123.319 14.5952 123.134 14.2386C122.949 13.882 122.672 13.6146 122.302 13.4363C121.887 13.258 121.517 13.1688 121.147 13.1688ZM119.992 16.6903V13.9266H120.962C121.286 13.9266 121.517 13.9712 121.702 14.0158C121.84 14.0603 121.979 14.1495 122.071 14.2832C122.164 14.4169 122.21 14.5507 122.21 14.6844C122.21 14.8627 122.118 15.041 121.979 15.2193C121.84 15.353 121.656 15.4422 121.378 15.4868C121.471 15.5313 121.563 15.5759 121.609 15.6205C121.702 15.7096 121.84 15.8879 122.025 16.1554L122.349 16.6903H121.794L121.563 16.2445C121.378 15.8879 121.194 15.7096 121.101 15.6205C121.009 15.5759 120.916 15.5313 120.731 15.5313H120.454V16.6903H119.992ZM120.454 15.1301H121.009C121.286 15.1301 121.471 15.0856 121.563 14.9964C121.656 14.9073 121.702 14.8181 121.702 14.6844C121.702 14.5952 121.702 14.5507 121.609 14.4615C121.563 14.4169 121.517 14.3278 121.425 14.3278C121.332 14.2832 121.194 14.2832 120.962 14.2832H120.454V15.1301Z" fill="#73994B"/>
<path d="M132.408 7.42521H157.313V11.2543H132.408V7.42521ZM130.541 29.3381H159.405V33.1673H130.541V29.3381ZM141.353 8.77666H145.761C144.474 16.4993 142.576 26.0238 141.192 31.7836H136.816C138.425 25.7986 140.323 16.2419 141.353 8.77666ZM133.47 16.8532H154.353V31.1401H150.363V20.6502H133.47V16.8532ZM165.937 6.4277H188.397V34.2935H184.246V10.3212H169.927V34.3256H165.937V6.4277ZM168.672 17.2394H185.983V21.0685H168.672V17.2394ZM168.64 28.3406H185.983V32.2341H168.64V28.3406ZM207.703 5.81633H223.953V9.03408H207.703V5.81633ZM208.443 22.613H223.438V25.8308H208.443V22.613ZM206.963 30.6896H224.435V33.9395H206.963V30.6896ZM213.785 24.1575H217.678V33.1994H213.785V24.1575ZM209.795 9.5811L212.916 10.2568C212.111 12.0588 211.146 13.9573 210.277 15.5661C211.5 17.4324 212.723 19.5561 213.302 20.972L210.31 22.1625C209.698 20.4249 208.443 17.9151 206.995 15.5983C208.057 13.6355 209.215 11.19 209.795 9.5811ZM214.975 9.5811L218.096 10.2568C217.292 12.0588 216.262 13.9251 215.361 15.5339C216.681 17.3359 217.968 19.4274 218.611 20.8432L215.619 22.066C214.975 20.3284 213.592 17.8507 212.015 15.5661C213.173 13.5711 214.364 11.19 214.975 9.5811ZM220.445 9.5811L223.631 10.289C222.73 12.1231 221.604 13.9573 220.639 15.5661C222.022 17.3681 223.406 19.4918 224.082 20.9398L221.121 22.1625C220.413 20.4249 218.901 17.9151 217.196 15.5983C218.45 13.6355 219.738 11.19 220.445 9.5811ZM194.543 7.58609H206.867V10.9004H194.543V7.58609ZM194.06 26.2491H207.22V29.5955H194.06V26.2491ZM199.08 4.52922H202.233V13.8929H199.08V4.52922ZM199.466 13.9573H201.943V22.9026H202.297V34.7118H199.112V22.9026H199.466V13.9573ZM197.728 19.717V21.6477H203.713V19.717H197.728ZM197.728 15.3087V17.175H203.713V15.3087H197.728ZM195.057 12.638H206.513V24.3184H195.057V12.638Z" fill="#73994B"/>
</svg>
