<svg width="160" height="40" viewBox="0 0 160 40" fill="none" xmlns="http://www.w3.org/2000/svg">
<path d="M73.9973 13.598C73.9973 20.9156 67.8458 26.8503 60.2609 26.8503C52.676 26.8503 46.5244 20.9156 46.5244 13.598C46.5244 6.28044 52.676 0.345703 60.2609 0.345703C67.8458 0.345703 73.9973 6.28044 73.9973 13.598ZM60.2609 5.81949C55.7816 5.81949 52.1982 9.33423 52.1982 13.598C52.1982 17.9194 55.8413 21.3766 60.2609 21.3766C64.7402 21.3766 68.3236 17.8618 68.3236 13.598C68.3236 9.27661 64.6804 5.81949 60.2609 5.81949Z" fill="#73994B"/>
<path d="M10.4517 26.8503V21.3766H13.7365C18.2158 21.3766 21.7992 17.8618 21.7992 13.598C21.7992 9.27661 18.156 5.81949 13.7365 5.81949C9.25718 5.81949 5.61403 9.33423 5.61403 13.598V39.1808L0 33.8222V13.598C0 6.28044 6.15155 0.345703 13.7365 0.345703C21.3214 0.345703 27.4729 6.28044 27.4729 13.598C27.4729 20.9156 21.3214 26.8503 13.7365 26.8503H10.4517Z" fill="#73994B"/>
<path d="M120.701 13.598C120.701 20.9156 114.55 26.8503 106.965 26.8503C99.3801 26.8503 93.2285 20.9156 93.2285 13.598C93.2285 6.28044 99.3801 0.345703 106.965 0.345703C114.55 0.345703 120.701 6.28044 120.701 13.598ZM106.965 5.81949C102.486 5.81949 98.9023 9.33423 98.9023 13.598C98.9023 17.9194 102.545 21.3766 106.965 21.3766C111.444 21.3766 115.028 17.8618 115.028 13.598C115.028 9.27661 111.385 5.81949 106.965 5.81949Z" fill="#73994B"/>
<path d="M82.8963 21.4918V0H77.2822V26.8503H92.4521V21.4918H82.8963Z" fill="#73994B"/>
<path d="M31.2949 13.4252C31.2949 6.10758 37.4465 0.172852 45.0314 0.172852V5.64663C40.5521 5.64663 36.9687 9.16138 36.9687 13.4252V26.908H31.2949V13.4252Z" fill="#73994B"/>
<path d="M151.459 26.8503H145.845V13.7709C145.845 9.44946 142.202 5.99234 137.782 5.99234C133.303 5.99234 129.66 9.50708 129.66 13.7709V26.8503H124.046V13.7709C124.046 6.45329 130.197 0.518555 137.782 0.518555C145.367 0.518555 151.519 6.45329 151.519 13.7709L151.459 26.8503Z" fill="#73994B"/>
<path d="M156.596 0.172852C157.193 0.172852 157.73 0.288089 158.268 0.576183C158.805 0.864277 159.224 1.26761 159.522 1.78618C159.821 2.30475 160 2.88093 160 3.45712C160 4.03331 159.821 4.55188 159.522 5.07045C159.224 5.58902 158.805 5.99235 158.268 6.28044C157.73 6.56853 157.133 6.74139 156.596 6.74139C155.998 6.74139 155.461 6.56853 154.923 6.28044C154.386 5.99235 153.968 5.58902 153.669 5.07045C153.371 4.55188 153.191 3.97569 153.191 3.45712C153.191 2.88093 153.371 2.36236 153.669 1.78618C153.968 1.26761 154.386 0.864277 154.923 0.576183C155.461 0.345708 155.998 0.172852 156.596 0.172852ZM156.596 0.749039C156.118 0.749039 155.64 0.864276 155.222 1.09475C154.744 1.32523 154.386 1.67094 154.147 2.13189C153.908 2.59284 153.789 3.05379 153.789 3.51474C153.789 3.97569 153.908 4.43664 154.147 4.89759C154.386 5.35854 154.744 5.64663 155.222 5.93473C155.7 6.1652 156.118 6.28044 156.655 6.28044C157.133 6.28044 157.611 6.1652 158.089 5.93473C158.567 5.70425 158.865 5.35854 159.164 4.89759C159.403 4.43664 159.522 4.03331 159.522 3.51474C159.522 3.05379 159.403 2.59284 159.164 2.13189C158.925 1.67094 158.567 1.32523 158.089 1.09475C157.551 0.864276 157.073 0.749039 156.596 0.749039ZM155.103 5.30092V1.72856H156.357C156.775 1.72856 157.073 1.78618 157.312 1.8438C157.492 1.90141 157.671 2.01665 157.79 2.18951C157.91 2.36236 157.969 2.53522 157.969 2.70808C157.969 2.93855 157.85 3.16903 157.671 3.3995C157.492 3.57236 157.253 3.6876 156.894 3.74521C157.014 3.80283 157.133 3.86045 157.193 3.91807C157.312 4.03331 157.492 4.26378 157.73 4.6095L158.148 5.30092H157.432L157.133 4.72473C156.894 4.26378 156.655 4.03331 156.536 3.91807C156.416 3.86045 156.297 3.80283 156.058 3.80283H155.7V5.30092H155.103ZM155.7 3.28427H156.416C156.775 3.28427 157.014 3.22665 157.133 3.11141C157.253 2.99617 157.312 2.88093 157.312 2.70808C157.312 2.59284 157.312 2.53522 157.193 2.41998C157.133 2.36237 157.073 2.24713 156.954 2.24713C156.835 2.18951 156.655 2.18951 156.357 2.18951H155.7V3.28427Z" fill="#73994B"/>
</svg>
