<svg width="218" height="35" viewBox="0 0 218 35" fill="none" xmlns="http://www.w3.org/2000/svg">
<path d="M56.6931 14.835C56.6931 20.6033 51.979 25.281 46.1659 25.281C40.3527 25.281 35.6386 20.6033 35.6386 14.835C35.6386 9.06674 40.3527 4.38368 46.1659 4.38368C51.979 4.38368 56.6931 9.0614 56.6931 14.835ZM46.1659 8.68184C42.7448 8.68184 39.9648 11.435 39.9648 14.835C39.9648 18.2351 42.7394 20.9882 46.1659 20.9882C49.5923 20.9882 52.3669 18.2351 52.3669 14.835C52.3669 11.435 49.5923 8.68184 46.1659 8.68184Z" fill="#73994B"/>
<path d="M7.97357 20.9882H10.5273C13.9484 20.9882 16.7283 18.2351 16.7283 14.835C16.7283 11.435 13.9537 8.68184 10.5273 8.68184C7.10078 8.68184 4.32081 11.435 4.32081 14.835V35L0 30.7606V14.835C0 9.06674 4.7141 4.38903 10.5273 4.38903C16.3404 4.38903 21.0545 9.06674 21.0545 14.8404C21.0545 20.614 16.3404 25.2917 10.5273 25.2917H7.97357V20.9882Z" fill="#73994B"/>
<path d="M92.488 14.835C92.488 20.6033 87.7739 25.281 81.9553 25.281C76.1368 25.281 71.4227 20.6033 71.4227 14.835C71.4227 9.06674 76.1368 4.38368 81.9553 4.38368C87.7739 4.38368 92.488 9.0614 92.488 14.835ZM81.9553 8.68184C78.5342 8.68184 75.7543 11.435 75.7543 14.835C75.7543 18.2351 78.5288 20.9882 81.9553 20.9882C85.3818 20.9882 88.1564 18.2351 88.1564 14.835C88.1564 11.435 85.3818 8.68184 81.9553 8.68184Z" fill="#73994B"/>
<path d="M63.5353 21.0577V4.095H59.2199V25.2971H70.857V21.0577H63.5353Z" fill="#73994B"/>
<path d="M23.9584 14.6747C23.9584 8.90636 28.6725 4.2233 34.4857 4.2233V8.52146C31.0646 8.52146 28.2846 11.2746 28.2846 14.6747V25.2971H23.953V14.6747H23.9584Z" fill="#73994B"/>
<path d="M111.786 25.281L111.775 14.974C111.775 11.5793 109.001 8.82083 105.574 8.82083C102.148 8.82083 99.3679 11.574 99.3679 14.974V25.2971H95.0471V14.974C95.0471 9.20574 99.7612 4.52268 105.58 4.52268C111.398 4.52268 116.112 9.20039 116.112 14.974V25.281H111.786Z" fill="#73994B"/>
<path d="M120.018 4.25538C120.455 4.25538 120.886 4.36765 121.301 4.59218C121.715 4.81671 122.044 5.13212 122.276 5.5491C122.507 5.96609 122.626 6.39911 122.626 6.84817C122.626 7.29723 122.513 7.72491 122.281 8.13655C122.049 8.54819 121.732 8.86894 121.317 9.09347C120.902 9.32335 120.471 9.43561 120.018 9.43561C119.566 9.43561 119.135 9.32335 118.72 9.09347C118.305 8.8636 117.982 8.54819 117.75 8.13655C117.518 7.72491 117.405 7.29723 117.405 6.84817C117.405 6.39911 117.524 5.96609 117.756 5.5491C117.987 5.13212 118.316 4.81671 118.731 4.59218C119.146 4.36765 119.577 4.25538 120.013 4.25538H120.018ZM120.018 4.68306C119.652 4.68306 119.296 4.77394 118.946 4.96105C118.601 5.14816 118.327 5.41545 118.133 5.76294C117.939 6.11043 117.842 6.46861 117.842 6.84817C117.842 7.22773 117.939 7.58057 118.133 7.92271C118.327 8.26485 118.596 8.53215 118.941 8.7246C119.286 8.91706 119.647 9.01328 120.024 9.01328C120.401 9.01328 120.762 8.91706 121.107 8.7246C121.451 8.53215 121.721 8.26485 121.915 7.92271C122.109 7.58057 122.2 7.22239 122.2 6.84817C122.2 6.47395 122.103 6.11043 121.909 5.76294C121.715 5.41545 121.441 5.14816 121.096 4.96105C120.746 4.77394 120.39 4.68306 120.029 4.68306H120.018ZM118.871 8.27554V5.4903H119.835C120.164 5.4903 120.406 5.51703 120.552 5.56514C120.697 5.6186 120.816 5.70414 120.902 5.83244C120.988 5.96074 121.031 6.09439 121.031 6.23873C121.031 6.44188 120.956 6.61829 120.81 6.77333C120.665 6.92301 120.471 7.00855 120.228 7.02993C120.325 7.0727 120.406 7.12081 120.465 7.17962C120.579 7.29189 120.719 7.47365 120.88 7.73025L121.225 8.27554H120.67L120.422 7.83717C120.228 7.48969 120.067 7.27585 119.948 7.19031C119.867 7.12616 119.744 7.09409 119.587 7.09409H119.323V8.27554H118.871ZM119.323 6.70918H119.873C120.137 6.70918 120.315 6.67175 120.412 6.59156C120.509 6.51138 120.557 6.4098 120.557 6.2815C120.557 6.20131 120.536 6.12647 120.487 6.06231C120.439 5.99816 120.379 5.95005 120.293 5.91797C120.212 5.8859 120.061 5.86986 119.841 5.86986H119.323V6.70918Z" fill="#73994B"/>
<path d="M133.136 25.9279C132.403 25.9279 132.037 25.5644 132.037 24.8373C132.037 24.1103 132.403 23.7468 133.136 23.7468H138.777C139.547 20.6194 140.248 17.353 140.878 13.9423H136.212C135.48 13.9423 135.113 13.5681 135.113 12.825C135.113 12.0819 135.48 11.7344 136.212 11.7344H141.304C141.729 9.55324 142.128 7.34536 142.494 5.11074H135.054C134.321 5.11074 133.955 4.73653 133.955 3.99344C133.955 3.25035 134.321 2.90286 135.054 2.90286H155.419C156.152 2.90286 156.518 3.26639 156.518 3.99344C156.518 4.72049 156.152 5.11074 155.419 5.11074H144.93C144.806 5.77899 144.622 6.81611 144.38 8.22744C144.094 9.78311 143.879 10.9485 143.739 11.7344H151.912C152.44 11.7344 152.865 11.8948 153.194 12.2209C153.517 12.5416 153.684 12.9693 153.684 13.4932V23.7468H157.617C158.35 23.7468 158.716 24.1103 158.716 24.8373C158.716 25.5644 158.35 25.9279 157.617 25.9279H133.136ZM141.217 23.7521H151.432V14.5838C151.432 14.1615 151.217 13.9476 150.791 13.9476H143.292C142.537 17.7807 141.848 21.047 141.217 23.7521Z" fill="#73994B"/>
<path d="M166.489 25.2917C165.961 25.2917 165.536 25.1314 165.207 24.8053C164.884 24.4845 164.717 24.0568 164.717 23.5329V3.81168C164.717 3.28777 164.878 2.86544 165.207 2.53934C165.53 2.21858 165.961 2.05286 166.489 2.05286H182.555C183.083 2.05286 183.509 2.21324 183.837 2.53934C184.16 2.8601 184.327 3.28777 184.327 3.81168V23.5383C184.327 24.0622 184.166 24.4845 183.837 24.8106C183.514 25.1314 183.083 25.2971 182.555 25.2971H166.489V25.2917ZM166.98 12.4347H181.952V4.90225C181.952 4.47992 181.736 4.26608 181.31 4.26608H167.621C167.195 4.26608 166.98 4.47992 166.98 4.90225V12.4347ZM167.621 23.0839H181.31C181.736 23.0839 181.952 22.87 181.952 22.4477V14.6426H166.98V22.4477C166.98 22.87 167.195 23.0839 167.621 23.0839Z" fill="#73994B"/>
<path d="M196.368 27.6226C195.716 27.6226 195.392 27.3125 195.392 26.687V22.3622H191.336C190.662 22.3622 190.328 22.0307 190.328 21.3625C190.328 20.6942 190.662 20.3628 191.336 20.3628H195.392V17.9143H193.043C192.515 17.9143 192.09 17.7539 191.761 17.4278C191.438 17.1071 191.271 16.6794 191.271 16.1555V9.22713C191.271 8.70322 191.433 8.28089 191.761 7.95479C192.084 7.63403 192.515 7.46831 193.043 7.46831H195.392V5.22835H191.675C191.023 5.22835 190.7 4.8969 190.7 4.22865C190.7 3.56041 191.023 3.26104 191.675 3.26104H195.392V0.935543C195.392 0.310066 195.705 0 196.335 0C196.966 0 197.278 0.310066 197.278 0.935543V3.26638H200.969C201.62 3.26638 201.944 3.58714 201.944 4.234C201.944 4.88086 201.62 5.23369 200.969 5.23369H197.278V7.47365H199.778C200.306 7.47365 200.731 7.63403 201.06 7.96013C201.383 8.28089 201.55 8.70857 201.55 9.23247V16.1608C201.55 16.6847 201.389 17.1071 201.06 17.4332C200.737 17.7539 200.306 17.9197 199.778 17.9197H197.31V20.3681H201.184C201.852 20.3681 202.191 20.6996 202.191 21.3678C202.191 22.036 201.857 22.3675 201.184 22.3675H197.31V26.6924C197.31 27.3179 196.993 27.6279 196.368 27.6279V27.6226ZM192.952 11.8627H195.543V9.16832H193.593C193.167 9.16832 192.952 9.38216 192.952 9.80449V11.8627ZM193.593 16.2196H195.543V13.4665H192.952V15.5835C192.952 16.0058 193.167 16.2196 193.593 16.2196ZM197.127 11.8627H199.778V9.80449C199.778 9.38216 199.562 9.16832 199.137 9.16832H197.127V11.8627ZM197.127 16.2196H199.137C199.562 16.2196 199.778 16.0058 199.778 15.5835V13.4665H197.127V16.2196ZM202.552 26.8367C201.901 26.8367 201.577 26.516 201.577 25.8691C201.577 25.2222 201.901 24.9015 202.552 24.9015H208.77V18.9995H204.228C203.576 18.9995 203.253 18.6788 203.253 18.0319C203.253 17.3851 203.576 17.0643 204.228 17.0643H216.059C216.711 17.0643 217.034 17.3851 217.034 18.0319C217.034 18.6788 216.711 18.9995 216.059 18.9995H211V24.9015H216.975C217.627 24.9015 217.95 25.2222 217.95 25.8691C217.95 26.516 217.627 26.8367 216.975 26.8367H202.552ZM205.144 15.2788C204.821 14.5517 204.481 13.8781 204.136 13.2526C203.872 12.7875 203.458 12.0712 202.886 11.1036C202.418 10.3551 202.407 9.62273 202.854 8.89568C203.646 7.48434 204.298 6.21201 204.804 5.08401C204.988 4.64029 205.365 4.49061 205.93 4.6296C206.663 4.81136 206.862 5.20696 206.539 5.81106C205.99 6.90163 205.23 8.29158 204.255 9.98625C205.252 11.4404 206.157 12.9907 206.97 14.6426C207.094 14.9259 207.1 15.1451 207.003 15.3055C206.922 15.4659 206.717 15.6102 206.394 15.7278C205.785 15.9684 205.365 15.8187 205.144 15.2734V15.2788ZM203.652 3.42141C203 3.42141 202.676 3.08996 202.676 2.42172C202.676 1.75347 203 1.4541 203.652 1.4541H216.641C217.293 1.4541 217.616 1.77486 217.616 2.42172C217.616 3.06858 217.293 3.42141 216.641 3.42141H203.652ZM210.176 15.252C209.809 14.5089 209.443 13.83 209.077 13.2259C208.673 12.4989 208.226 11.7932 207.735 11.1089C207.245 10.3444 207.229 9.57461 207.676 8.81014C208.49 7.43623 209.158 6.19062 209.686 5.05728C209.89 4.63495 210.273 4.49061 210.844 4.63495C211.555 4.81671 211.749 5.21231 211.426 5.8164C210.795 6.96579 210.003 8.34504 209.05 9.95952C210.289 11.6114 211.264 13.1671 211.975 14.6159C212.099 14.8778 212.11 15.0916 212.008 15.252C211.905 15.391 211.7 15.5247 211.399 15.6476C210.812 15.8882 210.402 15.7599 210.181 15.252H210.176ZM215.326 15.3108C215.1 14.8243 214.707 14.1401 214.136 13.2526C213.71 12.547 213.252 11.852 212.762 11.1677C212.212 10.3819 212.191 9.596 212.703 8.81014C213.678 7.21705 214.378 5.96609 214.804 5.05728C215.008 4.63495 215.386 4.49061 215.93 4.63495C216.641 4.81671 216.835 5.21766 216.512 5.84313C216.021 6.73056 215.208 8.09378 214.071 9.92745L214.039 9.98625C215.197 11.4992 216.215 13.0388 217.088 14.6159C217.25 14.8778 217.282 15.1023 217.18 15.2788C217.099 15.4177 216.894 15.5621 216.571 15.7011C215.984 15.963 215.563 15.8347 215.321 15.3055L215.326 15.3108Z" fill="#73994B"/>
</svg>
