<svg width="225" height="35" viewBox="0 0 225 35" fill="none" xmlns="http://www.w3.org/2000/svg">
<path d="M56.6931 14.835C56.6931 20.6033 51.979 25.281 46.1659 25.281C40.3527 25.281 35.6386 20.6033 35.6386 14.835C35.6386 9.06675 40.3527 4.38369 46.1659 4.38369C51.979 4.38369 56.6931 9.0614 56.6931 14.835ZM46.1659 8.68184C42.7448 8.68184 39.9648 11.435 39.9648 14.835C39.9648 18.2351 42.7394 20.9882 46.1659 20.9882C49.5923 20.9882 52.3669 18.2351 52.3669 14.835C52.3669 11.435 49.5923 8.68184 46.1659 8.68184Z" fill="#73994B"/>
<path d="M7.97357 20.9882H10.5273C13.9484 20.9882 16.7283 18.2351 16.7283 14.835C16.7283 11.435 13.9537 8.68184 10.5273 8.68184C7.10078 8.68184 4.32081 11.435 4.32081 14.835V35L0 30.7607V14.835C0 9.06675 4.7141 4.38903 10.5273 4.38903C16.3404 4.38903 21.0545 9.06675 21.0545 14.8404C21.0545 20.614 16.3404 25.2917 10.5273 25.2917H7.97357V20.9882Z" fill="#73994B"/>
<path d="M92.488 14.835C92.488 20.6033 87.7739 25.281 81.9553 25.281C76.1368 25.281 71.4227 20.6033 71.4227 14.835C71.4227 9.06675 76.1368 4.38369 81.9553 4.38369C87.7739 4.38369 92.488 9.0614 92.488 14.835ZM81.9553 8.68184C78.5342 8.68184 75.7543 11.435 75.7543 14.835C75.7543 18.2351 78.5288 20.9882 81.9553 20.9882C85.3818 20.9882 88.1564 18.2351 88.1564 14.835C88.1564 11.435 85.3818 8.68184 81.9553 8.68184Z" fill="#73994B"/>
<path d="M63.5353 21.0577V4.09501H59.2199V25.2971H70.857V21.0577H63.5353Z" fill="#73994B"/>
<path d="M23.9584 14.6747C23.9584 8.90637 28.6725 4.22331 34.4857 4.22331V8.52146C31.0646 8.52146 28.2846 11.2746 28.2846 14.6747V25.2971H23.953V14.6747H23.9584Z" fill="#73994B"/>
<path d="M111.786 25.281L111.775 14.974C111.775 11.5793 109.001 8.82083 105.574 8.82083C102.148 8.82083 99.3679 11.574 99.3679 14.974V25.2971H95.0471V14.974C95.0471 9.20574 99.7612 4.52268 105.58 4.52268C111.398 4.52268 116.112 9.2004 116.112 14.974V25.281H111.786Z" fill="#73994B"/>
<path d="M120.018 4.25538C120.455 4.25538 120.886 4.36765 121.301 4.59218C121.715 4.81671 122.044 5.13212 122.276 5.54911C122.507 5.96609 122.626 6.39911 122.626 6.84817C122.626 7.29724 122.513 7.72491 122.281 8.13655C122.049 8.54819 121.732 8.86895 121.317 9.09348C120.902 9.32335 120.471 9.43562 120.018 9.43562C119.566 9.43562 119.135 9.32335 118.72 9.09348C118.305 8.8636 117.982 8.54819 117.75 8.13655C117.518 7.72491 117.405 7.29724 117.405 6.84817C117.405 6.39911 117.524 5.96609 117.756 5.54911C117.987 5.13212 118.316 4.81671 118.731 4.59218C119.146 4.36765 119.577 4.25538 120.013 4.25538H120.018ZM120.018 4.68306C119.652 4.68306 119.296 4.77394 118.946 4.96105C118.601 5.14816 118.327 5.41546 118.133 5.76294C117.939 6.11043 117.842 6.46861 117.842 6.84817C117.842 7.22774 117.939 7.58057 118.133 7.92271C118.327 8.26485 118.596 8.53215 118.941 8.72461C119.286 8.91706 119.647 9.01329 120.024 9.01329C120.401 9.01329 120.762 8.91706 121.107 8.72461C121.451 8.53215 121.721 8.26485 121.915 7.92271C122.109 7.58057 122.2 7.22239 122.2 6.84817C122.2 6.47396 122.103 6.11043 121.909 5.76294C121.715 5.41546 121.441 5.14816 121.096 4.96105C120.746 4.77394 120.39 4.68306 120.029 4.68306H120.018ZM118.871 8.27555V5.4903H119.835C120.164 5.4903 120.406 5.51703 120.552 5.56514C120.697 5.6186 120.816 5.70414 120.902 5.83244C120.988 5.96075 121.031 6.09439 121.031 6.23874C121.031 6.44188 120.956 6.6183 120.81 6.77333C120.665 6.92302 120.471 7.00855 120.228 7.02994C120.325 7.0727 120.406 7.12082 120.465 7.17962C120.579 7.29189 120.719 7.47365 120.88 7.73026L121.225 8.27555H120.67L120.422 7.83718C120.228 7.48969 120.067 7.27585 119.948 7.19032C119.867 7.12616 119.744 7.09409 119.587 7.09409H119.323V8.27555H118.871ZM119.323 6.70918H119.873C120.137 6.70918 120.315 6.67176 120.412 6.59157C120.509 6.51138 120.557 6.40981 120.557 6.2815C120.557 6.20131 120.536 6.12647 120.487 6.06232C120.439 5.99817 120.379 5.95005 120.293 5.91798C120.212 5.8859 120.061 5.86986 119.841 5.86986H119.323V6.70918Z" fill="#73994B"/>
<path d="M133.137 25.9279C132.404 25.9279 132.038 25.5644 132.038 24.8373C132.038 24.1103 132.404 23.7468 133.137 23.7468H138.778C139.548 20.6194 140.249 17.353 140.879 13.9423H136.213C135.481 13.9423 135.114 13.568 135.114 12.825C135.114 12.0819 135.481 11.7344 136.213 11.7344H141.305C141.73 9.55323 142.129 7.34535 142.495 5.11074H135.055C134.322 5.11074 133.956 4.73652 133.956 3.99343C133.956 3.25034 134.322 2.90286 135.055 2.90286H155.42C156.153 2.90286 156.519 3.26638 156.519 3.99343C156.519 4.72048 156.153 5.11074 155.42 5.11074H144.93C144.806 5.77898 144.623 6.8161 144.381 8.22743C144.095 9.78311 143.88 10.9485 143.74 11.7344H151.913C152.441 11.7344 152.866 11.8948 153.195 12.2209C153.518 12.5416 153.685 12.9693 153.685 13.4932V23.7468H157.618C158.351 23.7468 158.717 24.1103 158.717 24.8373C158.717 25.5644 158.351 25.9279 157.618 25.9279H133.137ZM141.218 23.7521H151.433V14.5838C151.433 14.1614 151.218 13.9476 150.792 13.9476H143.293C142.538 17.7807 141.849 21.047 141.218 23.7521Z" fill="#73994B"/>
<path d="M170.365 25.2917C169.837 25.2917 169.411 25.1314 169.083 24.8053C168.759 24.4845 168.592 24.0568 168.592 23.5329V3.81167C168.592 3.28777 168.754 2.86543 169.083 2.53933C169.406 2.21857 169.837 2.05285 170.365 2.05285H186.431C186.959 2.05285 187.384 2.21323 187.713 2.53933C188.036 2.86009 188.203 3.28777 188.203 3.81167V23.5383C188.203 24.0622 188.041 24.4845 187.713 24.8106C187.39 25.1314 186.959 25.2971 186.431 25.2971H170.365V25.2917ZM170.855 12.4347H185.827V4.90225C185.827 4.47991 185.612 4.26608 185.186 4.26608H171.496C171.071 4.26608 170.855 4.47991 170.855 4.90225V12.4347ZM171.496 23.0839H185.186C185.612 23.0839 185.827 22.87 185.827 22.4477V14.6426H170.855V22.4477C170.855 22.87 171.071 23.0839 171.496 23.0839Z" fill="#73994B"/>
<path d="M203.412 27.6226C202.76 27.6226 202.437 27.3125 202.437 26.687V22.3622H198.38C197.707 22.3622 197.373 22.0307 197.373 21.3625C197.373 20.6942 197.707 20.3628 198.38 20.3628H202.437V17.9143H200.088C199.56 17.9143 199.134 17.7539 198.806 17.4278C198.482 17.1071 198.315 16.6794 198.315 16.1555V9.22713C198.315 8.70322 198.477 8.28089 198.806 7.95479C199.129 7.63403 199.56 7.46831 200.088 7.46831H202.437V5.22835H198.72C198.068 5.22835 197.744 4.8969 197.744 4.22865C197.744 3.56041 198.068 3.26104 198.72 3.26104H202.437V0.935543C202.437 0.310066 202.749 0 203.38 0C204.01 0 204.323 0.310066 204.323 0.935543V3.26638H208.013C208.665 3.26638 208.988 3.58714 208.988 4.234C208.988 4.88086 208.665 5.23369 208.013 5.23369H204.323V7.47365H206.822C207.35 7.47365 207.776 7.63403 208.105 7.96013C208.428 8.28089 208.595 8.70857 208.595 9.23247V16.1608C208.595 16.6847 208.433 17.1071 208.105 17.4332C207.781 17.7539 207.35 17.9197 206.822 17.9197H204.355V20.3681H208.229C208.897 20.3681 209.236 20.6996 209.236 21.3678C209.236 22.036 208.902 22.3675 208.229 22.3675H204.355V26.6924C204.355 27.3179 204.037 27.6279 203.412 27.6279V27.6226ZM199.996 11.8627H202.588V9.16832H200.638C200.212 9.16832 199.996 9.38216 199.996 9.80449V11.8627ZM200.638 16.2196H202.588V13.4665H199.996V15.5835C199.996 16.0058 200.212 16.2196 200.638 16.2196ZM204.172 11.8627H206.822V9.80449C206.822 9.38216 206.607 9.16832 206.181 9.16832H204.172V11.8627ZM204.172 16.2196H206.181C206.607 16.2196 206.822 16.0058 206.822 15.5835V13.4665H204.172V16.2196ZM209.597 26.8367C208.945 26.8367 208.622 26.516 208.622 25.8691C208.622 25.2222 208.945 24.9015 209.597 24.9015H215.814V18.9995H211.273C210.621 18.9995 210.297 18.6788 210.297 18.0319C210.297 17.3851 210.621 17.0643 211.273 17.0643H223.104C223.755 17.0643 224.079 17.3851 224.079 18.0319C224.079 18.6788 223.755 18.9995 223.104 18.9995H218.045V24.9015H224.019C224.671 24.9015 224.995 25.2222 224.995 25.8691C224.995 26.516 224.671 26.8367 224.019 26.8367H209.597ZM212.188 15.2788C211.865 14.5517 211.526 13.8781 211.181 13.2526C210.917 12.7875 210.502 12.0712 209.931 11.1036C209.462 10.3551 209.452 9.62273 209.899 8.89568C210.691 7.48434 211.343 6.21201 211.849 5.08401C212.032 4.64029 212.409 4.49061 212.975 4.6296C213.708 4.81136 213.907 5.20696 213.584 5.81106C213.034 6.90163 212.275 8.29158 211.299 9.98625C212.296 11.4404 213.201 12.9907 214.015 14.6426C214.139 14.9259 214.144 15.1451 214.047 15.3055C213.966 15.4659 213.762 15.6102 213.438 15.7278C212.83 15.9684 212.409 15.8187 212.188 15.2734V15.2788ZM210.696 3.42141C210.044 3.42141 209.721 3.08996 209.721 2.42172C209.721 1.75347 210.044 1.4541 210.696 1.4541H223.685C224.337 1.4541 224.661 1.77486 224.661 2.42172C224.661 3.06858 224.337 3.42141 223.685 3.42141H210.696ZM217.22 15.252C216.854 14.5089 216.488 13.83 216.121 13.2259C215.717 12.4989 215.27 11.7932 214.78 11.1089C214.29 10.3444 214.273 9.57461 214.721 8.81014C215.534 7.43623 216.202 6.19062 216.73 5.05728C216.935 4.63495 217.317 4.49061 217.888 4.63495C218.6 4.81671 218.794 5.21231 218.47 5.8164C217.84 6.96579 217.048 8.34504 216.094 9.95952C217.334 11.6114 218.309 13.1671 219.02 14.6159C219.144 14.8778 219.154 15.0916 219.052 15.252C218.95 15.391 218.745 15.5247 218.443 15.6476C217.856 15.8882 217.447 15.7599 217.226 15.252H217.22ZM222.371 15.3108C222.145 14.8243 221.751 14.1401 221.18 13.2526C220.755 12.547 220.297 11.852 219.806 11.1677C219.257 10.3819 219.235 9.596 219.747 8.81014C220.722 7.21705 221.423 5.96609 221.848 5.05728C222.053 4.63495 222.43 4.49061 222.974 4.63495C223.685 4.81671 223.879 5.21766 223.556 5.84313C223.066 6.73056 222.252 8.09378 221.116 9.92745L221.083 9.98625C222.242 11.4992 223.26 13.0388 224.133 14.6159C224.294 14.8778 224.327 15.1023 224.224 15.2788C224.143 15.4177 223.939 15.5621 223.615 15.7011C223.028 15.963 222.608 15.8347 222.365 15.3055L222.371 15.3108Z" fill="#73994B"/>
</svg>
